<svg data-v-fde0c5aa="" xmlns="http://www.w3.org/2000/svg" viewBox="0 0 300 300" class="iconLeftSlogan"><!----><defs data-v-fde0c5aa=""><!----></defs><rect data-v-fde0c5aa="" fill="#F3E9F1" x="0" y="0" width="300px" height="300px" class="logo-background-square"></rect><defs data-v-fde0c5aa=""><!----></defs><g data-v-fde0c5aa="" id="c3e5e269-fea9-43a2-b97a-54b000f9e0ed" fill="#261624" transform="matrix(2.843568214775801,0,0,2.843568214775801,119.98269446721612,113.9386974200533)"><path d="M3.78 13.78L4.62 13.78L4.62 10.40L7.76 4.54L6.90 4.54L5.42 7.45C5.05 8.16 4.65 8.90 4.26 9.65L4.20 9.65C3.79 8.90 3.44 8.19 3.07 7.49L1.51 4.54L0.64 4.54L3.78 10.40ZM11.96 13.96C12.95 13.96 13.96 13.37 14.73 12.73L14.77 12.73L14.84 13.78L15.51 13.78L15.51 9.27C15.51 7.67 14.71 6.47 12.89 6.47C11.70 6.47 10.72 7.08 10.23 7.50L10.57 8.11C11.06 7.67 11.82 7.17 12.77 7.17C14.22 7.17 14.69 8.19 14.70 9.28C11.10 9.62 9.65 10.37 9.65 12.00C9.65 13.30 10.74 13.96 11.96 13.96ZM12.14 13.29C11.28 13.29 10.44 12.89 10.44 11.94C10.44 10.85 11.47 10.18 14.70 9.87L14.70 12.05C13.82 12.87 12.96 13.29 12.14 13.29ZM21.11 13.94C23.03 13.94 24.25 12.84 24.25 11.40C24.25 10.00 23.28 9.45 22.19 8.95L20.83 8.36C20.09 8.02 19.14 7.64 19.14 6.65C19.14 5.70 19.95 5.11 21.17 5.11C22.13 5.11 22.88 5.47 23.46 6.02L23.93 5.47C23.31 4.84 22.33 4.37 21.17 4.37C19.50 4.37 18.28 5.33 18.28 6.71C18.28 8.05 19.40 8.68 20.29 9.04L21.66 9.63C22.62 10.07 23.41 10.37 23.41 11.47C23.41 12.50 22.54 13.20 21.11 13.20C20.02 13.20 19.03 12.71 18.34 11.97L17.82 12.56C18.59 13.38 19.73 13.94 21.11 13.94ZM29.82 13.96C30.98 13.96 31.77 13.54 32.40 13.12L32.09 12.53C31.44 12.98 30.77 13.26 29.90 13.26C28.25 13.26 27.10 12.07 27.09 10.36L32.65 10.36C32.68 10.18 32.68 9.98 32.68 9.79C32.68 7.74 31.51 6.47 29.64 6.47C27.90 6.47 26.24 7.91 26.24 10.22C26.24 12.56 27.86 13.96 29.82 13.96ZM27.08 9.73C27.26 8.12 28.41 7.13 29.64 7.13C31.02 7.13 31.91 8.04 31.91 9.73ZM38.22 13.96C39.38 13.96 40.17 13.54 40.80 13.12L40.49 12.53C39.84 12.98 39.17 13.26 38.30 13.26C36.65 13.26 35.50 12.07 35.49 10.36L41.05 10.36C41.08 10.18 41.08 9.98 41.08 9.79C41.08 7.74 39.91 6.47 38.04 6.47C36.30 6.47 34.64 7.91 34.64 10.22C34.64 12.56 36.26 13.96 38.22 13.96ZM35.48 9.73C35.66 8.12 36.81 7.13 38.04 7.13C39.42 7.13 40.31 8.04 40.31 9.73ZM43.41 13.78L44.23 13.78L44.23 8.71C45.14 7.67 45.75 7.18 46.65 7.18C47.91 7.18 48.43 7.92 48.43 9.44L48.43 13.78L49.24 13.78L49.24 9.32C49.24 7.42 48.48 6.47 46.84 6.47C45.78 6.47 44.98 7.10 44.23 7.98L44.17 7.98L44.09 6.64L43.41 6.64Z"></path></g><defs data-v-fde0c5aa=""><linearGradient data-v-fde0c5aa="" gradientTransform="rotate(25)" id="07f47b9f-0c02-4e1b-8a76-b63dd4360000" x1="0%" y1="0%" x2="100%" y2="0%"><stop data-v-fde0c5aa="" offset="0%" stop-color="#E98C00" stop-opacity="1"></stop><stop data-v-fde0c5aa="" offset="100%" stop-color="#8F5BFE" stop-opacity="1"></stop></linearGradient></defs><g data-v-fde0c5aa="" id="077307d7-8a20-4499-9366-7e8b691ec0d8" stroke="none" fill="url(#07f47b9f-0c02-4e1b-8a76-b63dd4360000)" transform="matrix(3.807558351713311,0,0,3.807558351713311,40,115.59871087325753)"><path d="M18.07 9.07c0-2.47-1.89-4.47-4.29-4.71C13.58 1.92 11.56 0 9.07 0S4.6 1.89 4.36 4.29C1.92 4.49 0 6.51 0 9s1.89 4.46 4.29 4.7c.2 2.44 2.22 4.37 4.71 4.37s4.47-1.89 4.71-4.29c2.44-.2 4.36-2.22 4.36-4.71zM9.07 1c2.07 0 3.75 1.68 3.75 3.75 0 .31-.05.6-.12.89a4.997 4.997 0 0 0-7.29-.04c-.06-.27-.1-.55-.1-.84 0-2.07 1.68-3.75 3.75-3.75zm4 8.07c0 .5-.1.98-.27 1.42-.46-.61-1.05-1.1-1.74-1.43.69-.32 1.28-.8 1.74-1.4.17.44.27.91.27 1.41zm-8.05 0c0-.51.11-1 .28-1.45.45.59 1.03 1.07 1.71 1.4-.69.32-1.28.8-1.74 1.4-.15-.42-.25-.87-.25-1.35zm3.99.5c1.4 0 2.6.77 3.25 1.91-.74.98-1.89 1.62-3.21 1.62s-2.52-.67-3.26-1.68c.65-1.1 1.84-1.85 3.22-1.85zm.06-1.06c-1.38 0-2.57-.75-3.22-1.86.74-.97 1.89-1.61 3.2-1.61s2.49.65 3.23 1.64c-.66 1.09-1.84 1.83-3.2 1.83zM1 9.01C1 7.07 2.48 5.49 4.37 5.3c.05.46.15.9.32 1.31-.41.73-.67 1.56-.67 2.46s.24 1.67.62 2.38c-.17.4-.27.83-.33 1.27C2.45 12.5 1 10.93 1 9.01zm8 8.07c-2.07 0-3.75-1.68-3.75-3.75 0-.3.04-.58.11-.86.92 1 2.22 1.63 3.69 1.63s2.71-.6 3.63-1.56c.05.25.09.52.09.78 0 2.07-1.68 3.75-3.75 3.75zm4.7-4.29c-.05-.44-.14-.86-.3-1.25.41-.73.67-1.56.67-2.46s-.25-1.7-.65-2.42c.17-.4.28-.83.33-1.28 1.86.22 3.31 1.79 3.31 3.71s-1.48 3.52-3.37 3.71z" data-name="Calque 2"></path></g><defs data-v-fde0c5aa=""><!----></defs><g data-v-fde0c5aa="" id="aed5e3d2-9b26-45a3-a8d3-fabd492ba202" fill="#261624" transform="matrix(0.9899528345581838,0,0,0.9899528345581838,120.5651372102872,160.86304191723872)"><path d="M4.52 5.88L4.52 5.88Q6.01 5.88 6.87 6.85L6.87 6.85L6.87 6.85Q7.73 7.81 7.73 9.52L7.73 9.52L7.73 9.52Q7.73 11.23 6.87 12.19L6.87 12.19L6.87 12.19Q6.01 13.16 4.52 13.16L4.52 13.16L4.52 13.16Q3.58 13.16 2.90 12.71L2.90 12.71L2.90 12.71Q2.21 12.25 1.92 11.45L1.92 11.45L1.88 13.02L1.25 13.02L1.25 2.80L1.95 2.80L1.95 7.50L1.95 7.50Q2.27 6.75 2.95 6.31L2.95 6.31L2.95 6.31Q3.63 5.88 4.52 5.88L4.52 5.88ZM4.44 12.54L4.44 12.54Q5.66 12.54 6.34 11.74L6.34 11.74L6.34 11.74Q7.03 10.93 7.03 9.52L7.03 9.52L7.03 9.52Q7.03 8.11 6.34 7.30L6.34 7.30L6.34 7.30Q5.66 6.50 4.44 6.50L4.44 6.50L4.44 6.50Q3.35 6.50 2.67 7.24L2.67 7.24L2.67 7.24Q2.00 7.98 1.95 9.27L1.95 9.27L1.95 9.77L1.95 9.77Q2.00 11.06 2.67 11.80L2.67 11.80L2.67 11.80Q3.35 12.54 4.44 12.54L4.44 12.54ZM22.18 6.02L18.80 14.31L18.80 14.31Q18.41 15.26 17.93 15.64L17.93 15.64L17.93 15.64Q17.46 16.03 16.73 16.03L16.73 16.03L16.73 16.03Q15.86 16.03 15.40 15.51L15.40 15.51L15.67 14.91L15.67 14.91Q16.00 15.41 16.73 15.41L16.73 15.41L16.73 15.41Q17.22 15.41 17.56 15.14L17.56 15.14L17.56 15.14Q17.91 14.87 18.20 14.14L18.20 14.14L18.65 13.02L17.92 11.28L15.69 6.02L16.49 6.02L18.63 11.33L18.98 12.26L19.36 11.26L21.42 6.02L22.18 6.02ZM47.40 3.78L44.13 9.42L44.13 13.02L43.43 13.02L43.43 9.42L40.15 3.78L40.98 3.78L43.78 8.69L46.58 3.78L47.40 3.78ZM60.38 12.56L60.38 12.56Q60.73 12.56 60.93 12.46L60.93 12.46L60.89 13.02L60.89 13.02Q60.63 13.16 60.20 13.16L60.20 13.16L60.20 13.16Q59.71 13.16 59.40 12.89L59.40 12.89L59.40 12.89Q59.09 12.63 59.05 11.97L59.05 11.97L59.05 11.97Q58.73 12.53 58.02 12.84L58.02 12.84L58.02 12.84Q57.30 13.16 56.52 13.16L56.52 13.16L56.52 13.16Q55.48 13.16 54.86 12.70L54.86 12.70L54.86 12.70Q54.24 12.24 54.24 11.38L54.24 11.38L54.24 11.38Q54.24 9.76 56.90 9.28L56.90 9.28L59.04 8.90L59.04 8.29L59.04 8.29Q59.04 7.45 58.54 6.97L58.54 6.97L58.54 6.97Q58.04 6.50 57.13 6.50L57.13 6.50L57.13 6.50Q55.47 6.50 54.89 7.98L54.89 7.98L54.36 7.59L54.36 7.59Q54.67 6.76 55.38 6.32L55.38 6.32L55.38 6.32Q56.10 5.88 57.13 5.88L57.13 5.88L57.13 5.88Q58.35 5.88 59.04 6.47L59.04 6.47L59.04 6.47Q59.74 7.07 59.74 8.20L59.74 8.20L59.74 11.82L59.74 11.82Q59.74 12.56 60.38 12.56L60.38 12.56ZM56.59 12.54L56.59 12.54Q57.18 12.54 57.74 12.34L57.74 12.34L57.74 12.34Q58.30 12.14 58.67 11.74L58.67 11.74L58.67 11.74Q59.04 11.34 59.04 10.78L59.04 10.78L59.04 9.48L57.12 9.83L57.12 9.83Q55.99 10.04 55.47 10.42L55.47 10.42L55.47 10.42Q54.95 10.79 54.95 11.38L54.95 11.38L54.95 11.38Q54.95 11.94 55.38 12.24L55.38 12.24L55.38 12.24Q55.82 12.54 56.59 12.54L56.59 12.54ZM72.21 5.88L72.21 5.88Q73.26 5.88 74.00 6.38L74.00 6.38L74.00 6.38Q74.73 6.87 75.05 7.77L75.05 7.77L74.40 8.08L74.40 8.08Q74.16 7.31 73.60 6.90L73.60 6.90L73.60 6.90Q73.04 6.50 72.20 6.50L72.20 6.50L72.20 6.50Q70.98 6.50 70.29 7.30L70.29 7.30L70.29 7.30Q69.61 8.11 69.61 9.52L69.61 9.52L69.61 9.52Q69.61 10.95 70.29 11.75L70.29 11.75L70.29 11.75Q70.97 12.54 72.18 12.54L72.18 12.54L72.18 12.54Q73.08 12.54 73.70 12.10L73.70 12.10L73.70 12.10Q74.33 11.66 74.47 10.88L74.47 10.88L75.11 11.10L75.11 11.10Q74.83 12.05 74.05 12.61L74.05 12.61L74.05 12.61Q73.28 13.16 72.20 13.16L72.20 13.16L72.20 13.16Q70.64 13.16 69.78 12.19L69.78 12.19L69.78 12.19Q68.91 11.23 68.91 9.52L68.91 9.52L68.91 9.52Q68.91 7.81 69.78 6.85L69.78 6.85L69.78 6.85Q70.66 5.88 72.21 5.88L72.21 5.88ZM84.34 4.66L84.34 4.66Q84.07 4.66 83.91 4.50L83.91 4.50L83.91 4.50Q83.75 4.34 83.75 4.07L83.75 4.07L83.75 4.07Q83.75 3.81 83.91 3.65L83.91 3.65L83.91 3.65Q84.07 3.49 84.34 3.49L84.34 3.49L84.34 3.49Q84.60 3.49 84.76 3.65L84.76 3.65L84.76 3.65Q84.92 3.81 84.92 4.07L84.92 4.07L84.92 4.07Q84.92 4.34 84.76 4.50L84.76 4.50L84.76 4.50Q84.60 4.66 84.34 4.66L84.34 4.66ZM84.69 6.02L84.69 13.02L83.99 13.02L83.99 6.02L84.69 6.02ZM97.47 5.88L97.47 5.88Q98.67 5.88 99.41 6.55L99.41 6.55L99.41 6.55Q100.14 7.22 100.14 8.48L100.14 8.48L100.14 13.02L99.44 13.02L99.44 8.71L99.44 8.71Q99.44 7.59 98.90 7.04L98.90 7.04L98.90 7.04Q98.35 6.50 97.40 6.50L97.40 6.50L97.40 6.50Q96.73 6.50 96.15 6.80L96.15 6.80L96.15 6.80Q95.58 7.11 95.23 7.70L95.23 7.70L95.23 7.70Q94.89 8.29 94.89 9.07L94.89 9.07L94.89 13.02L94.19 13.02L94.19 6.02L94.82 6.02L94.85 7.43L94.85 7.43Q95.19 6.68 95.88 6.28L95.88 6.28L95.88 6.28Q96.57 5.88 97.47 5.88L97.47 5.88ZM115.39 9.35L115.39 9.35Q115.39 9.59 115.36 9.81L115.36 9.81L109.80 9.81L109.80 9.81Q109.87 11.10 110.56 11.82L110.56 11.82L110.56 11.82Q111.26 12.54 112.42 12.54L112.42 12.54L112.42 12.54Q113.25 12.54 113.84 12.21L113.84 12.21L113.84 12.21Q114.44 11.87 114.70 11.26L114.70 11.26L115.29 11.56L115.29 11.56Q114.90 12.33 114.17 12.75L114.17 12.75L114.17 12.75Q113.44 13.16 112.42 13.16L112.42 13.16L112.42 13.16Q110.87 13.16 109.99 12.19L109.99 12.19L109.99 12.19Q109.12 11.23 109.12 9.52L109.12 9.52L109.12 9.52Q109.12 7.81 109.96 6.85L109.96 6.85L109.96 6.85Q110.81 5.88 112.34 5.88L112.34 5.88L112.34 5.88Q113.76 5.88 114.58 6.83L114.58 6.83L114.58 6.83Q115.39 7.78 115.39 9.35L115.39 9.35ZM112.34 6.50L112.34 6.50Q111.20 6.50 110.54 7.20L110.54 7.20L110.54 7.20Q109.89 7.91 109.80 9.18L109.80 9.18L114.73 9.18L114.73 9.18Q114.66 7.92 114.04 7.21L114.04 7.21L114.04 7.21Q113.41 6.50 112.34 6.50L112.34 6.50ZM124.61 11.87L124.61 11.87Q124.89 11.87 125.07 12.05L125.07 12.05L125.07 12.05Q125.24 12.22 125.24 12.50L125.24 12.50L125.24 12.50Q125.24 12.78 125.07 12.96L125.07 12.96L125.07 12.96Q124.89 13.13 124.61 13.13L124.61 13.13L124.61 13.13Q124.33 13.13 124.16 12.96L124.16 12.96L124.16 12.96Q123.98 12.78 123.98 12.50L123.98 12.50L123.98 12.50Q123.98 12.22 124.16 12.05L124.16 12.05L124.16 12.05Q124.33 11.87 124.61 11.87L124.61 11.87ZM135.31 12.38L140.85 12.38L140.85 13.02L134.61 13.02L134.61 3.78L135.31 3.78L135.31 12.38Z"></path></g></svg>