<svg data-v-fde0c5aa="" xmlns="http://www.w3.org/2000/svg" viewBox="0 0 300 300" class="iconLeftSlogan"><!----><defs data-v-fde0c5aa=""><!----></defs><rect data-v-fde0c5aa="" fill="#F3E9F1" x="0" y="0" width="300px" height="300px" class="logo-background-square"></rect><defs data-v-fde0c5aa=""><!----></defs><g data-v-fde0c5aa="" id="c3e5e269-fea9-43a2-b97a-54b000f9e0ed" fill="#261624" transform="matrix(2.284828958031185,0,0,2.284828958031185,108.37874745245102,120.4989846470954)"><path d="M3.78 13.78L4.62 13.78L4.62 10.40L7.76 4.54L6.90 4.54L5.42 7.45C5.05 8.16 4.65 8.90 4.26 9.65L4.20 9.65C3.79 8.90 3.44 8.19 3.07 7.49L1.51 4.54L0.64 4.54L3.78 10.40ZM11.96 13.96C12.95 13.96 13.96 13.37 14.73 12.73L14.77 12.73L14.84 13.78L15.51 13.78L15.51 9.27C15.51 7.67 14.71 6.47 12.89 6.47C11.70 6.47 10.72 7.08 10.23 7.50L10.57 8.11C11.06 7.67 11.82 7.17 12.77 7.17C14.22 7.17 14.69 8.19 14.70 9.28C11.10 9.62 9.65 10.37 9.65 12.00C9.65 13.30 10.74 13.96 11.96 13.96ZM12.14 13.29C11.28 13.29 10.44 12.89 10.44 11.94C10.44 10.85 11.47 10.18 14.70 9.87L14.70 12.05C13.82 12.87 12.96 13.29 12.14 13.29ZM21.66 13.96C22.69 13.96 23.59 13.51 24.30 12.81L23.93 12.28C23.31 12.84 22.58 13.27 21.70 13.27C19.98 13.27 18.83 12.04 18.83 10.22C18.83 8.40 20.01 7.15 21.71 7.15C22.50 7.15 23.13 7.52 23.70 8.09L24.14 7.55C23.58 6.97 22.81 6.47 21.70 6.47C19.67 6.47 17.99 7.83 17.99 10.22C17.99 12.59 19.56 13.96 21.66 13.96ZM29.79 4.76C30.24 4.76 30.62 4.41 30.62 3.95C30.62 3.44 30.24 3.11 29.79 3.11C29.34 3.11 28.97 3.44 28.97 3.95C28.97 4.41 29.34 4.76 29.79 4.76ZM26.81 13.78L33.11 13.78L33.11 13.09L30.35 13.09L30.35 6.64L26.81 6.64L26.81 7.32L29.55 7.32L29.55 13.09L26.81 13.09ZM35.01 13.78L35.83 13.78L35.83 8.71C36.74 7.67 37.35 7.18 38.25 7.18C39.51 7.18 40.03 7.92 40.03 9.44L40.03 13.78L40.84 13.78L40.84 9.32C40.84 7.42 40.08 6.47 38.44 6.47C37.38 6.47 36.58 7.10 35.83 7.98L35.77 7.98L35.69 6.64L35.01 6.64ZM46.62 13.96C47.78 13.96 48.57 13.54 49.20 13.12L48.89 12.53C48.24 12.98 47.57 13.26 46.70 13.26C45.05 13.26 43.90 12.07 43.89 10.36L49.45 10.36C49.48 10.18 49.48 9.98 49.48 9.79C49.48 7.74 48.31 6.47 46.44 6.47C44.70 6.47 43.04 7.91 43.04 10.22C43.04 12.56 44.66 13.96 46.62 13.96ZM43.88 9.73C44.06 8.12 45.21 7.13 46.44 7.13C47.82 7.13 48.71 8.04 48.71 9.73ZM51.67 9.48L57.53 9.48L57.53 8.83L51.67 8.83ZM60.82 13.78L66.36 13.78L66.36 13.06L61.63 13.06L61.63 4.54L60.82 4.54Z"></path></g><defs data-v-fde0c5aa=""><linearGradient data-v-fde0c5aa="" gradientTransform="rotate(25)" id="07f47b9f-0c02-4e1b-8a76-b63dd4360000" x1="0%" y1="0%" x2="100%" y2="0%"><stop data-v-fde0c5aa="" offset="0%" stop-color="#E98C00" stop-opacity="1"></stop><stop data-v-fde0c5aa="" offset="100%" stop-color="#8F5BFE" stop-opacity="1"></stop></linearGradient></defs><g data-v-fde0c5aa="" id="077307d7-8a20-4499-9366-7e8b691ec0d8" stroke="none" fill="url(#07f47b9f-0c02-4e1b-8a76-b63dd4360000)" transform="matrix(1.2323259271141966,0,0,1.2323259271141966,36.2993287407336,119.9156174824225)"><path d="M49.043 25.654c-.19.143-.446.236-.724.249a1.07 1.07 0 0 1-.701-.199.66.66 0 0 1-.275-.545.74.74 0 0 1 .305-.559c.185-.141.437-.228.713-.228.277 0 .531.085.713.22.019.014.033.03.05.045a8.37 8.37 0 0 0 .004-.227c0-.502-.019-1-.05-1.495-.016.012-.026.025-.043.038a1.12 1.12 0 0 1-.7.194 1.258 1.258 0 0 1-.722-.253.793.793 0 0 1-.326-.564.612.612 0 0 1 .253-.536c.169-.128.411-.196.687-.176.277.021.537.125.73.272.016.01.023.022.035.033a20.272 20.272 0 0 0-.213-1.514c0 .002-.002.003-.004.004-.158.114-.396.175-.672.145a1.382 1.382 0 0 1-.732-.3c-.2-.159-.338-.369-.372-.586a.529.529 0 0 1 .202-.516c.154-.117.384-.17.656-.129.259.037.506.151.705.304a23.536 23.536 0 0 0-.328-1.294.913.913 0 0 1-.569.06 1.616 1.616 0 0 1-.739-.345c-.205-.173-.357-.391-.408-.606s.01-.393.146-.498c.139-.104.355-.139.62-.079.192.042.386.13.559.24a21.468 21.468 0 0 0-.368-.986.953.953 0 0 1-.412-.02 1.805 1.805 0 0 1-.737-.391c-.214-.184-.376-.404-.442-.622-.066-.216-.023-.387.096-.479.123-.094.324-.112.58-.038.094.028.191.07.286.119a30.656 30.656 0 0 0-.343-.678 1.219 1.219 0 0 1-.164-.04 2.062 2.062 0 0 1-.732-.429c-.215-.193-.389-.424-.47-.642-.081-.217-.06-.379.046-.463.082-.064.217-.082.389-.042-.127-.201-.256-.4-.389-.597a2.755 2.755 0 0 1-.392-.298 2.115 2.115 0 0 1-.498-.655c-.065-.146-.079-.263-.06-.346a22.848 22.848 0 0 0-3.469-3.565.89.89 0 0 1-.24-.07 2.26 2.26 0 0 1-.664-.499 2.49 2.49 0 0 1-.28-.349 23.09 23.09 0 0 0-1.819-1.189c.025.053.051.107.068.161.086.246.076.434-.014.54-.09.107-.258.137-.478.06s-.45-.245-.642-.46a1.975 1.975 0 0 1-.422-.724.857.857 0 0 1-.033-.396 22.075 22.075 0 0 0-1.91-.836v.001c.181.211.326.472.388.729.063.259.033.468-.071.599s-.278.184-.5.128c-.221-.055-.441-.208-.617-.414s-.312-.467-.362-.73c-.052-.263-.013-.48.087-.615.02-.024.04-.041.062-.061a22.983 22.983 0 0 0-2.299-.629c.09.064.176.145.254.239.164.201.287.461.326.729.041.269-.01.495-.129.646a.54.54 0 0 1-.523.195c-.221-.033-.432-.171-.594-.365a1.373 1.373 0 0 1-.306-.726c-.028-.271.03-.506.147-.662a.51.51 0 0 1 .236-.177 23.678 23.678 0 0 0-2.652-.352.82.82 0 0 1 .443.306c.149.19.252.443.268.718a.985.985 0 0 1-.188.684.645.645 0 0 1-.547.258.796.796 0 0 1-.57-.313 1.191 1.191 0 0 1-.246-.711c-.006-.272.076-.52.209-.692a.63.63 0 0 1 .431-.259 23.152 23.152 0 0 0-5.778.345.49.49 0 0 1 .327.2c.118.155.178.39.148.661a1.386 1.386 0 0 1-.305.725c-.162.197-.375.334-.596.367-.221.031-.406-.043-.521-.195-.121-.15-.172-.377-.131-.646.041-.267.164-.525.327-.729a1.18 1.18 0 0 1 .378-.312 23.38 23.38 0 0 0-2.456.65c.049.026.094.06.131.107.102.135.14.354.086.615a1.62 1.62 0 0 1-.361.73c-.176.206-.396.36-.617.414-.221.056-.396.003-.5-.128s-.136-.34-.072-.599a1.783 1.783 0 0 1 .514-.86c-.705.257-1.394.547-2.062.869.052.115.056.284-.008.493a1.97 1.97 0 0 1-.421.725c-.192.214-.422.382-.643.459s-.388.049-.477-.06c-.09-.106-.102-.294-.016-.54.041-.113.104-.233.174-.352a23.96 23.96 0 0 0-1.771 1.115 2.484 2.484 0 0 1-.433.612 2.234 2.234 0 0 1-.664.499c-.197.09-.34.095-.423.036a23.119 23.119 0 0 0-3.403 3.47c.142.052.173.219.058.477a2.11 2.11 0 0 1-.496.655 2.477 2.477 0 0 1-.719.468l-.008.001c-.115.177-.23.354-.342.531.046-.021.094-.044.141-.062.244-.093.43-.087.534-.003s.13.246.046.463c-.08.218-.253.447-.47.642-.218.191-.479.35-.731.429a.895.895 0 0 1-.389.046c-.148.283-.291.57-.429.86.187-.138.395-.248.597-.309.258-.074.458-.056.579.038.122.095.163.265.097.479-.066.218-.229.438-.441.622a1.845 1.845 0 0 1-.738.391c-.262.065-.475.038-.6-.054l-.004-.002c-.174.43-.336.863-.484 1.307a1.846 1.846 0 0 1 .867-.485c.264-.06.479-.024.617.079.139.105.199.282.148.498-.05.218-.204.435-.41.606a1.622 1.622 0 0 1-.738.345c-.271.051-.495.01-.639-.094a.407.407 0 0 1-.107-.116 23.653 23.653 0 0 0-.437 1.73c.065-.095.151-.184.251-.264.204-.16.469-.282.74-.323.271-.04.501.012.654.129a.525.525 0 0 1 .201.516c-.033.217-.17.427-.371.586a1.398 1.398 0 0 1-.732.3c-.275.03-.514-.028-.673-.145a.505.505 0 0 1-.183-.237 22.442 22.442 0 0 0-.287 2.074.87.87 0 0 1 .289-.36c.193-.148.453-.253.729-.272a1.01 1.01 0 0 1 .687.176c.17.131.268.319.254.536a.801.801 0 0 1-.325.564 1.26 1.26 0 0 1-.722.253 1.129 1.129 0 0 1-.703-.194.64.64 0 0 1-.241-.343 23.322 23.322 0 0 0-.071 1.8c0 .186.005.367.01.552a.667.667 0 0 1 .268-.37c.181-.135.435-.22.712-.22.278 0 .528.087.714.228a.734.734 0 0 1 .303.559c.006.217-.1.41-.275.545a1.069 1.069 0 0 1-.7.199 1.31 1.31 0 0 1-.722-.249.777.777 0 0 1-.287-.378c.029.842.105 1.668.224 2.482a.54.54 0 0 1 .212-.303c.165-.12.405-.187.684-.164.274.021.535.128.729.284.198.154.328.36.354.577a.551.551 0 0 1-.219.524c-.158.122-.394.177-.667.143a1.487 1.487 0 0 1-.737-.305 1.072 1.072 0 0 1-.291-.339c.138.823.312 1.633.535 2.424a.379.379 0 0 1 .129-.159c.146-.104.373-.146.644-.103s.532.17.737.34c.207.17.358.387.406.604.047.217-.016.395-.156.5s-.358.143-.625.088a1.807 1.807 0 0 1-.739-.365 1.515 1.515 0 0 1-.181-.176c.242.771.522 1.522.84 2.258.125-.081.328-.103.576-.035.261.068.522.217.736.401.215.186.381.41.45.628.071.218.035.383-.081.475-.118.093-.314.107-.566.027a2.083 2.083 0 0 1-.543-.281c.395.781.832 1.535 1.31 2.263.021.007.041.012.063.021.241.095.498.265.719.468.219.202.399.438.496.653.125.282.074.459-.104.488a23.023 23.023 0 0 0 3.412 3.489c.067-.093.228-.1.46.004.22.1.458.281.665.499.206.217.38.471.478.707.002.002.002.003.002.005.58.4 1.18.775 1.795 1.122a2.036 2.036 0 0 1-.244-.458c-.086-.245-.074-.433.016-.54.089-.106.256-.136.477-.058.221.076.45.244.643.459.191.213.346.472.421.725.071.241.058.433-.021.546.72.348 1.461.657 2.217.93a1.69 1.69 0 0 1-.252-.243 1.846 1.846 0 0 1-.389-.729c-.062-.259-.031-.468.072-.6.104-.129.279-.183.5-.127.221.055.441.208.617.414.179.207.311.466.361.729.054.264.016.48-.086.616a.392.392 0 0 1-.229.144 23.188 23.188 0 0 0 11.773.691.492.492 0 0 1-.455-.202c-.116-.156-.176-.39-.146-.662.027-.271.143-.527.305-.725.162-.196.373-.333.594-.366s.404.044.524.196c.119.15.169.377.13.646a1.556 1.556 0 0 1-.328.729 1.052 1.052 0 0 1-.496.358 23.513 23.513 0 0 0 2.606-.703.398.398 0 0 1-.127-.104c-.101-.136-.14-.354-.087-.617a1.68 1.68 0 0 1 .361-.729c.178-.206.397-.359.619-.414.221-.056.396-.003.498.127.105.132.138.341.072.6a1.793 1.793 0 0 1-.487.833 23.689 23.689 0 0 0 2.02-.878c-.038-.113-.032-.271.023-.458.074-.253.229-.512.42-.725a1.62 1.62 0 0 1 .643-.459c.221-.078.387-.051.479.058.088.107.099.295.013.54a1.97 1.97 0 0 1-.122.262 23.253 23.253 0 0 0 1.799-1.168 2.88 2.88 0 0 1 .354-.47c.207-.218.445-.399.666-.499a.618.618 0 0 1 .319-.07 23.294 23.294 0 0 0 3.406-3.521c-.045-.084-.036-.217.041-.392.097-.216.276-.451.498-.653.142-.133.301-.247.462-.341a22.34 22.34 0 0 0 1.312-2.222 2.156 2.156 0 0 1-.228.094c-.254.08-.448.064-.567-.027-.117-.092-.152-.257-.082-.475.07-.217.236-.442.451-.628a1.89 1.89 0 0 1 .735-.401.967.967 0 0 1 .382-.03c.271-.628.514-1.27.729-1.925a1.692 1.692 0 0 1-.612.273c-.267.055-.485.019-.625-.088-.14-.105-.204-.283-.156-.5.05-.217.198-.434.406-.604a1.58 1.58 0 0 1 .739-.34c.244-.041.455-.006.6.081a24 24 0 0 0 .432-1.918l-.018.014c-.2.156-.461.272-.736.305-.273.034-.509-.021-.668-.143a.559.559 0 0 1-.218-.524c.024-.217.158-.423.354-.577.197-.156.455-.264.729-.284.276-.021.519.044.683.164.014.007.02.017.028.023.083-.615.142-1.24.175-1.874-.02.016-.036.034-.055.048zM16.248 10.348c.043-.259.187-.51.376-.708s.427-.345.673-.386c.244-.042.451.028.587.177.137.146.204.371.17.635a1.289 1.289 0 0 1-.354.711 1.207 1.207 0 0 1-.685.369c-.252.036-.467-.034-.604-.179-.142-.144-.205-.362-.163-.619zm-.392 2.606c.035-.261.174-.509.363-.701.191-.194.438-.331.693-.366.257-.034.475.042.622.194.147.15.226.379.196.642-.028.266-.16.514-.35.704-.188.19-.438.322-.699.352-.261.028-.488-.048-.638-.196a.736.736 0 0 1-.187-.629zm.02 2.115c.191-.188.441-.317.707-.346a.804.804 0 0 1 .652.213c.16.158.246.389.227.65-.021.265-.15.513-.339.697a1.15 1.15 0 0 1-.714.331.843.843 0 0 1-.664-.219.764.764 0 0 1-.223-.637c.029-.256.163-.501.354-.689zm1.053 4.279c-.188.181-.441.299-.717.312s-.52-.079-.689-.24a.795.795 0 0 1-.25-.646c.018-.259.145-.501.334-.683.19-.184.445-.306.718-.323a.874.874 0 0 1 .68.234.827.827 0 0 1 .25.658 1.052 1.052 0 0 1-.326.688zm.202 2.541a.967.967 0 0 1-.31.681 1.057 1.057 0 0 1-1.422.026.869.869 0 0 1-.279-.657.975.975 0 0 1 .316-.672c.187-.177.441-.292.717-.3a.96.96 0 0 1 .701.255.881.881 0 0 1 .277.667zM13.237 8.762c.068-.245.228-.495.429-.702.2-.207.438-.371.672-.438s.418-.024.531.098c.112.124.151.328.093.58s-.208.505-.404.706a1.478 1.478 0 0 1-.682.417c-.243.062-.438.018-.557-.103-.113-.119-.151-.313-.082-.558zm-.599 2.32a1.53 1.53 0 0 1 .411-.691c.201-.2.447-.354.692-.413.244-.059.445-.009.57.12.125.13.178.337.129.59-.051.252-.197.5-.395.697a1.43 1.43 0 0 1-.699.395c-.254.051-.462-.002-.591-.128-.128-.127-.178-.326-.117-.57zM12.5 12.87c.199-.193.451-.338.707-.388.255-.048.468.013.606.146.138.135.203.347.164.6a1.296 1.296 0 0 1-.381.688 1.361 1.361 0 0 1-.712.368c-.263.042-.483-.022-.625-.153-.143-.133-.206-.335-.159-.581.047-.243.199-.486.4-.68zm-1.153 11.764c.18-.161.435-.262.711-.262.278 0 .53.101.715.266a.888.888 0 0 1 .299.646.847.847 0 0 1-.281.642c-.18.16-.43.256-.706.248a1.123 1.123 0 0 1-.718-.281.87.87 0 0 1-.311-.634.811.811 0 0 1 .291-.625zm-.25-2.568a.934.934 0 0 1 .324-.641 1.17 1.17 0 0 1 .725-.295.959.959 0 0 1 .694.23.819.819 0 0 1 .269.637.942.942 0 0 1-.313.651c-.188.169-.44.274-.72.28a1.022 1.022 0 0 1-.703-.245.757.757 0 0 1-.276-.617zm.363 5.968a.978.978 0 0 1 .693-.227c.275.017.531.127.722.3.19.177.315.41.332.662a.766.766 0 0 1-.245.627.906.906 0 0 1-.684.213 1.254 1.254 0 0 1-.723-.315 1 1 0 0 1-.343-.648.73.73 0 0 1 .248-.612zm1.484-8.461a1.193 1.193 0 0 1-.725.312.929.929 0 0 1-.683-.214.698.698 0 0 1-.235-.606 1.03 1.03 0 0 1 .354-.653c.194-.179.45-.303.724-.328a.86.86 0 0 1 .671.204c.164.148.255.369.234.621s-.146.487-.34.664zm.28-2.926a1.262 1.262 0 0 1-.722.34c-.271.029-.502-.042-.657-.183a.654.654 0 0 1-.197-.592c.037-.246.181-.483.379-.668.197-.188.453-.322.719-.359.265-.036.488.032.643.175a.692.692 0 0 1 .197.608 1.158 1.158 0 0 1-.362.679zm-2.627-8.732c.1-.229.281-.477.493-.691.211-.216.451-.4.675-.499.219-.099.381-.091.465.004.085.092.093.271.005.507a2.059 2.059 0 0 1-.467.697 2.038 2.038 0 0 1-.684.474c-.23.089-.404.077-.494-.011-.088-.088-.093-.254.007-.481zM9.79 9.889c.087-.228.264-.469.477-.677.211-.209.459-.383.691-.471.232-.086.409-.069.51.031.1.102.124.283.047.52a1.828 1.828 0 0 1-.451.686 1.886 1.886 0 0 1-.701.445c-.242.077-.432.056-.534-.04-.107-.096-.127-.267-.039-.494zm-.764 2.153c.072-.229.244-.465.455-.663a1.88 1.88 0 0 1 .709-.438c.246-.075.438-.047.554.062.114.107.153.295.087.531a1.562 1.562 0 0 1-.432.673 1.718 1.718 0 0 1-.717.415c-.252.064-.453.032-.574-.071-.119-.105-.156-.281-.082-.509zm-.675 2.291c.061-.229.221-.458.431-.649.21-.189.467-.342.723-.403.256-.062.462-.021.593.094.131.117.186.31.131.546-.055.237-.207.473-.412.66s-.461.328-.726.381c-.261.052-.478.008-.612-.105-.137-.117-.189-.297-.128-.524zm-.577 2.469c.047-.229.199-.452.404-.635.205-.181.465-.318.729-.367.264-.048.486.006.63.132.146.124.213.321.174.56a1.163 1.163 0 0 1-.386.646 1.43 1.43 0 0 1-.73.345c-.269.039-.496-.02-.646-.142a.535.535 0 0 1-.175-.539zm-.435 2.646c.028-.228.169-.445.37-.617.199-.172.459-.295.729-.327.272-.033.504.033.664.168s.244.337.219.574c-.026.235-.16.46-.355.63a1.29 1.29 0 0 1-.729.31c-.274.021-.514-.05-.678-.182a.598.598 0 0 1-.22-.556zm.071 2.186c.19-.16.448-.27.726-.287a.972.972 0 0 1 .692.207.719.719 0 0 1 .26.591.878.878 0 0 1-.319.615 1.168 1.168 0 0 1-.721.269 1.046 1.046 0 0 1-.701-.224.681.681 0 0 1-.269-.572.863.863 0 0 1 .332-.599zm-.384 3.561a.72.72 0 0 1 .287-.579 1.13 1.13 0 0 1 .711-.242c.279 0 .531.093.713.247.186.154.3.373.305.607a.77.77 0 0 1-.279.599 1.052 1.052 0 0 1-.703.227 1.186 1.186 0 0 1-.721-.267c-.19-.157-.309-.364-.313-.592zm.2 3.141a.622.622 0 0 1 .235-.562.973.973 0 0 1 .687-.194c.277.017.535.127.728.294a.962.962 0 0 1 .345.625.669.669 0 0 1-.232.581c-.163.137-.399.207-.674.18a1.33 1.33 0 0 1-.729-.312c-.202-.168-.337-.385-.36-.612zm.88 3.91c-.205-.183-.354-.405-.397-.632-.043-.228.028-.416.181-.54.148-.125.381-.185.65-.146.271.036.529.162.73.34s.342.408.381.645-.031.437-.178.562c-.147.126-.371.18-.637.135a1.576 1.576 0 0 1-.73-.364zm.859 3.478c-.211-.191-.374-.426-.438-.652-.063-.227-.016-.407.113-.519.133-.111.344-.153.603-.097.261.056.519.201.724.392.206.189.36.427.419.664.058.236.007.427-.118.541-.127.113-.33.15-.584.085a1.775 1.775 0 0 1-.719-.414zm2.503 4.262c-.101.101-.277.118-.51.03a2.098 2.098 0 0 1-.691-.47c-.213-.208-.391-.45-.477-.678-.088-.229-.068-.397.037-.493.104-.098.292-.117.533-.039.242.077.492.24.701.443.207.203.373.448.451.687.08.236.055.421-.044.52zm.126-7.808a.665.665 0 0 1 .203-.595c.157-.143.39-.216.661-.188.27.028.527.154.723.337.193.185.327.422.358.677.028.251-.05.468-.203.61-.155.144-.382.214-.646.179a1.35 1.35 0 0 1-.719-.354 1.17 1.17 0 0 1-.377-.666zm1.05 4.407c-.201-.195-.353-.438-.402-.684-.051-.244.01-.446.148-.576.141-.132.355-.19.615-.146.26.043.512.183.71.375.196.192.339.438.384.69.043.251-.02.463-.154.596-.135.135-.346.191-.598.14a1.45 1.45 0 0 1-.703-.395zm2.225 4.456c-.113.123-.298.164-.531.098-.233-.068-.472-.231-.672-.438a1.746 1.746 0 0 1-.429-.704c-.069-.244-.032-.438.082-.559.117-.118.312-.162.557-.102.242.062.486.215.682.417.196.203.346.454.404.708.059.252.019.458-.093.58zM14.438 7.26c-.232.069-.412.034-.516-.078-.104-.113-.127-.304-.047-.549.075-.245.242-.498.438-.713.199-.213.431-.385.651-.461.22-.075.392-.042.489.075s.128.318.061.571c-.067.252-.22.507-.412.715-.197.209-.433.371-.664.44zm.943 17.386c.185-.168.435-.273.712-.273.279 0 .532.105.713.278a.94.94 0 0 1 .301.676.907.907 0 0 1-.285.67 1.006 1.006 0 0 1-.709.267 1.076 1.076 0 0 1-.717-.288.93.93 0 0 1-.305-.666.893.893 0 0 1 .29-.664zm.085 3.583a.966.966 0 0 1 .695-.248c.277.011.531.124.718.305.188.179.31.422.32.686a.852.852 0 0 1-.261.66.898.898 0 0 1-.688.242 1.163 1.163 0 0 1-.718-.314 1.031 1.031 0 0 1-.329-.679.83.83 0 0 1 .263-.652zm.017 4.379a.774.774 0 0 1 .227-.638.868.868 0 0 1 .67-.222c.27.02.521.144.712.33.19.184.316.432.339.693a.812.812 0 0 1-.229.651.81.81 0 0 1-.657.217 1.186 1.186 0 0 1-.708-.343 1.144 1.144 0 0 1-.354-.688zm.475 3.931c-.036-.26.037-.479.184-.624.147-.148.368-.227.631-.193.26.031.504.164.694.355.188.19.318.442.351.706.029.265-.045.489-.19.642a.683.683 0 0 1-.61.188 1.234 1.234 0 0 1-.688-.371 1.278 1.278 0 0 1-.372-.703zm2.313 5.282c-.123.144-.314.208-.549.159s-.464-.2-.652-.402a1.522 1.522 0 0 1-.379-.719c-.051-.258.002-.472.129-.609.125-.14.33-.203.572-.161.241.045.479.187.662.386.187.199.318.454.359.718.041.263-.014.484-.142.628zm.143-34.254c-.041.265-.174.52-.358.719-.186.199-.422.343-.664.386s-.443-.023-.57-.161c-.129-.14-.182-.353-.131-.611s.193-.513.381-.715c.188-.204.418-.355.65-.403.234-.051.428.016.551.159.126.141.183.364.141.626zm.382-2.291a1.516 1.516 0 0 1-.359.724c-.182.203-.41.352-.644.399-.231.052-.42-.009-.534-.144-.117-.136-.158-.347-.102-.604s.201-.517.385-.724c.186-.207.407-.366.628-.42.222-.056.397.004.513.145.112.14.161.36.113.624zm1.619-.297c.037-.269.161-.525.331-.725.17-.201.383-.343.604-.375a.56.56 0 0 1 .535.208c.127.157.193.394.168.664s-.141.526-.31.722-.39.329-.621.358a.605.605 0 0 1-.556-.203c-.128-.153-.187-.382-.151-.649zm-.299 2.327c.031-.269.158-.522.334-.721.174-.197.398-.334.631-.363a.622.622 0 0 1 .57.216c.138.161.211.397.189.668a1.25 1.25 0 0 1-.314.719 1.041 1.041 0 0 1-.646.35.677.677 0 0 1-.59-.215c-.137-.158-.205-.387-.174-.654zm-.281 2.537c.027-.269.152-.521.334-.716a1.07 1.07 0 0 1 .656-.354.705.705 0 0 1 .604.229c.148.164.23.399.211.672-.021.27-.139.522-.315.713a1.051 1.051 0 0 1-.669.34.745.745 0 0 1-.622-.225.828.828 0 0 1-.199-.659zm.081 1.988c.183-.19.424-.32.679-.341a.767.767 0 0 1 .635.236.893.893 0 0 1 .231.676 1.138 1.138 0 0 1-.315.709 1.068 1.068 0 0 1-.688.33c-.263.019-.491-.073-.649-.236s-.244-.396-.222-.664a1.16 1.16 0 0 1 .329-.71zm-.217 2.915c.186-.188.431-.312.696-.328a.842.842 0 0 1 .664.248c.164.169.26.409.248.68a1.081 1.081 0 0 1-1.017 1.024.848.848 0 0 1-.917-.92c.017-.267.14-.517.326-.704zm-.169 3.125c.186-.185.438-.304.707-.314a.908.908 0 0 1 .687.262.918.918 0 0 1 .271.685 1.056 1.056 0 0 1-1.024 1.007.947.947 0 0 1-.695-.263.895.895 0 0 1-.265-.678 1.06 1.06 0 0 1 .319-.699zm-.108 3.287c.187-.181.438-.294.716-.301.276-.006.525.1.702.272a.943.943 0 0 1 .284.689.974.974 0 0 1-.305.696 1.028 1.028 0 0 1-1.422.016.915.915 0 0 1-.283-.683.99.99 0 0 1 .308-.689zm-.034 3.498a1.02 1.02 0 0 1 .713-.284c.278 0 .529.108.713.287a.975.975 0 0 1 .299.692.948.948 0 0 1-.293.692.994.994 0 0 1-.707.279 1.057 1.057 0 0 1-.715-.295.957.957 0 0 1-.303-.688.933.933 0 0 1 .293-.683zm-.219 4.387a.895.895 0 0 1 .271-.679.965.965 0 0 1 .701-.27c.274.006.528.12.713.302.187.181.303.43.309.699.005.271-.102.514-.275.687s-.418.273-.691.265a1.064 1.064 0 0 1-.711-.31 1.02 1.02 0 0 1-.317-.694zm.426 3.192a.894.894 0 0 1 .678-.253 1.082 1.082 0 0 1 1.017 1.021.903.903 0 0 1-.251.681.849.849 0 0 1-.667.25 1.078 1.078 0 0 1-.698-.325 1.085 1.085 0 0 1-.325-.705.85.85 0 0 1 .246-.669zm.054 4.743a.834.834 0 0 1 .217-.662.78.78 0 0 1 .642-.232c.259.019.501.144.683.331s.301.439.316.711a.882.882 0 0 1-.227.675.74.74 0 0 1-.625.234 1.08 1.08 0 0 1-.676-.345 1.228 1.228 0 0 1-.33-.712zm.469 4.475c-.033-.27.035-.497.174-.653a.677.677 0 0 1 .59-.214c.242.025.473.158.646.35.174.193.289.447.313.717.021.272-.052.508-.188.67a.64.64 0 0 1-.571.218c-.231-.031-.457-.168-.631-.364a1.324 1.324 0 0 1-.333-.724zm2.006 5.359a.493.493 0 0 1-.499.199c-.209-.037-.414-.181-.577-.383a1.58 1.58 0 0 1-.328-.729c-.039-.268.01-.495.131-.646a.532.532 0 0 1 .522-.194c.221.032.433.17.595.367.164.196.275.453.305.725.028.27-.031.504-.149.661zm1.73-40.554a.86.86 0 0 1 .61-.318.728.728 0 0 1 .591.27c.149.176.241.422.238.696a1.092 1.092 0 0 1-.27.707c-.162.184-.385.301-.627.31s-.459-.093-.609-.265a.979.979 0 0 1-.221-.686c.016-.274.124-.527.288-.714zM23.698 4.6c.015-.272.119-.526.275-.716.154-.188.36-.312.582-.324a.662.662 0 0 1 .557.27c.144.174.229.42.225.694a1.144 1.144 0 0 1-.257.707.824.824 0 0 1-.601.312.709.709 0 0 1-.578-.26.982.982 0 0 1-.203-.683zm.041 4.247a.91.91 0 0 1 .64-.314.795.795 0 0 1 .622.272c.156.176.255.422.25.697a1.069 1.069 0 0 1-.273.705.927.927 0 0 1-.654.307c-.252.008-.479-.096-.637-.268s-.25-.414-.238-.688c.011-.272.12-.525.29-.711zm-.101 2.754a.947.947 0 0 1 .666-.31.848.848 0 0 1 .648.273c.166.178.27.425.265.698a1.054 1.054 0 0 1-.284.706.965.965 0 0 1-.678.302.881.881 0 0 1-.662-.271.946.946 0 0 1-.253-.69c.011-.273.124-.523.298-.708zm-.087 2.969a.98.98 0 0 1 .687-.308.916.916 0 0 1 .674.279.972.972 0 0 1 .273.699 1.008 1.008 0 0 1-.983 1.005.938.938 0 0 1-.953-.969c.007-.273.122-.523.302-.706zm-.07 3.181c.181-.182.43-.298.701-.301a.955.955 0 0 1 .694.282.998.998 0 0 1-.013 1.403c-.18.182-.43.294-.706.297a.968.968 0 0 1-.699-.282.945.945 0 0 1-.28-.692 1.04 1.04 0 0 1 .303-.707zm-.043 3.348c.183-.18.434-.294.711-.296a.994.994 0 0 1 .707.287.98.98 0 0 1-.006 1.403 1.012 1.012 0 0 1-.711.293 1.015 1.015 0 0 1-.713-.287.965.965 0 0 1-.289-.698c.003-.272.119-.523.301-.702zm-.013 3.562c.182-.18.434-.29.713-.29.276 0 .528.11.711.29a.978.978 0 0 1 .004 1.403 1.024 1.024 0 0 1-1.426-.005.978.978 0 0 1-.002-1.398zm.019 3.777a.999.999 0 0 1 .705-.284 1.012 1.012 0 0 1 1.006.998.974.974 0 0 1-.987.984 1.019 1.019 0 0 1-.704-.299 1.01 1.01 0 0 1-.302-.703.963.963 0 0 1 .282-.696zm.064 3.94a.941.941 0 0 1 .688-.278 1 1 0 0 1 .695.302c.178.182.287.43.291.703a1 1 0 0 1-.276.699.926.926 0 0 1-.679.281.99.99 0 0 1-.688-.309 1.052 1.052 0 0 1-.3-.706.927.927 0 0 1 .269-.692zm.109 4.155a.87.87 0 0 1 .655-.271.95.95 0 0 1 .67.303c.17.184.279.434.283.705.002.275-.099.523-.262.699a.84.84 0 0 1-.643.274.938.938 0 0 1-.657-.312 1.104 1.104 0 0 1-.296-.71.953.953 0 0 1 .25-.688zm.172 4.569c.151-.172.368-.271.61-.264s.463.126.627.309c.162.186.263.436.269.708a1.05 1.05 0 0 1-.239.695.726.726 0 0 1-.59.271.867.867 0 0 1-.611-.318 1.197 1.197 0 0 1-.285-.714.968.968 0 0 1 .219-.687zm1.385 5.996c-.134.174-.317.276-.524.265-.209-.011-.402-.137-.551-.326a1.334 1.334 0 0 1-.271-.718.987.987 0 0 1 .188-.682.639.639 0 0 1 .547-.257c.221.011.422.13.569.313.148.186.242.436.248.708.008.277-.074.522-.206.697zm-.038-44.034c-.148.186-.352.304-.572.314s-.414-.087-.547-.256c-.134-.169-.207-.409-.188-.683s.12-.527.27-.718c.148-.189.344-.313.551-.328.209-.012.393.091.525.266.131.175.213.42.208.694a1.193 1.193 0 0 1-.247.711zm4.031 18.737c0 .272-.109.52-.291.698a1.006 1.006 0 0 1-.71.287c-.278 0-.531-.112-.712-.293a.972.972 0 0 1-.297-.702.988.988 0 0 1 .999-.988 1.021 1.021 0 0 1 1.011.998zm-.32-2.65a.977.977 0 0 1-.701.281 1.007 1.007 0 0 1-.705-.296.98.98 0 0 1-.295-.703.982.982 0 0 1 .283-.701.953.953 0 0 1 .693-.281 1.025 1.025 0 0 1 1.003 1.006.962.962 0 0 1-.278.694zm-.059-3.182a.926.926 0 0 1-.684.276.986.986 0 0 1-.692-.3 1.02 1.02 0 0 1-.291-.706.982.982 0 0 1 .276-.698.91.91 0 0 1 .672-.279.994.994 0 0 1 .688.306c.177.185.292.435.3.707a.94.94 0 0 1-.269.694zm-.074-2.971a.872.872 0 0 1-.663.272.963.963 0 0 1-.676-.303 1.053 1.053 0 0 1-.283-.705 1.012 1.012 0 0 1 .265-.699.855.855 0 0 1 .649-.274c.255.008.49.125.664.311a1.1 1.1 0 0 1 .298.709.934.934 0 0 1-.254.689zm-.09-2.754a.828.828 0 0 1-.639.269.923.923 0 0 1-.65-.306 1.065 1.065 0 0 1-.277-.706 1.01 1.01 0 0 1 .252-.697.783.783 0 0 1 .621-.271.922.922 0 0 1 .641.312c.168.188.279.438.291.711a.95.95 0 0 1-.239.688zm-.103-2.588a.76.76 0 0 1-.607.264.879.879 0 0 1-.628-.31 1.093 1.093 0 0 1-.267-.706 1.04 1.04 0 0 1 .236-.695.732.732 0 0 1 .592-.271.864.864 0 0 1 .61.319c.164.188.272.438.285.712a.963.963 0 0 1-.221.687zm-1.322-3.83a.679.679 0 0 1 .557-.27c.224.012.429.135.583.323.155.188.262.443.277.717a.98.98 0 0 1-.206.684.709.709 0 0 1-.578.261.85.85 0 0 1-.601-.312 1.143 1.143 0 0 1-.256-.707c-.003-.274.083-.52.224-.696zm1.02 43.213c-.147.188-.342.312-.551.325-.209.012-.394-.093-.524-.267a1.107 1.107 0 0 1-.209-.695c.006-.272.099-.523.246-.709a.787.787 0 0 1 .57-.312.641.641 0 0 1 .547.257c.135.169.206.41.188.683a1.301 1.301 0 0 1-.267.718zm.238-4.535c-.162.187-.377.309-.61.316a.733.733 0 0 1-.592-.271 1.047 1.047 0 0 1-.236-.696c.004-.272.104-.522.267-.707a.884.884 0 0 1 .628-.308c.242-.008.458.093.607.264s.236.412.223.688a1.2 1.2 0 0 1-.287.714zm.189-4.569a.936.936 0 0 1-.658.312.846.846 0 0 1-.644-.275 1.016 1.016 0 0 1-.263-.698c.006-.272.113-.521.284-.704a.95.95 0 0 1 .67-.305.866.866 0 0 1 .655.271.936.936 0 0 1 .248.688 1.117 1.117 0 0 1-.292.711zm.121-4.156a.986.986 0 0 1-.687.307.924.924 0 0 1-.679-.281.982.982 0 0 1-.277-.699c.003-.272.113-.521.292-.703a1 1 0 0 1 .694-.3.945.945 0 0 1 .688.277.95.95 0 0 1 .271.691 1.055 1.055 0 0 1-.302.708zm.075-3.942a1.015 1.015 0 0 1-.704.299.96.96 0 0 1-.699-.284.971.971 0 0 1-.289-.7.998.998 0 0 1 .297-.702c.183-.182.433-.293.711-.296a.98.98 0 0 1 .701.284.94.94 0 0 1 .285.696c-.004.272-.12.521-.302.703zm.036-3.776c-.184.18-.436.292-.714.293a.996.996 0 0 1-1.004-.988c0-.274.11-.522.296-.703.182-.18.434-.29.713-.29.277 0 .527.11.712.29a.974.974 0 0 1-.003 1.398zm4.312-4.211a.922.922 0 0 1-.285.684c-.18.174-.432.278-.709.276a1.024 1.024 0 0 1-1.018-.989.933.933 0 0 1 .285-.688.968.968 0 0 1 .702-.273c.278.006.528.119.716.302.186.176.306.42.309.688zm-.362-2.606a.946.946 0 0 1-.694.264 1.064 1.064 0 0 1-.712-.306 1.042 1.042 0 0 1-.312-.702.91.91 0 0 1 .956-.946c.274.011.525.129.711.314.187.183.309.43.317.697.01.27-.091.51-.266.679zm-.14-3.126a.882.882 0 0 1-.674.25 1.087 1.087 0 0 1-.703-.317 1.07 1.07 0 0 1-.313-.706.9.9 0 0 1 .25-.681.836.836 0 0 1 .663-.249c.266.017.512.142.697.328.185.188.309.438.324.705a.852.852 0 0 1-.244.67zm-.187-2.916a.808.808 0 0 1-.65.236c-.262-.017-.504-.141-.687-.328s-.304-.438-.317-.711a.904.904 0 0 1 .231-.676c.157-.165.38-.258.636-.237s.496.149.68.341c.182.189.31.442.33.711a.837.837 0 0 1-.223.664zm-.227-2.705a.744.744 0 0 1-.621.226 1.04 1.04 0 0 1-.668-.34 1.174 1.174 0 0 1-.316-.714.896.896 0 0 1 .211-.672.711.711 0 0 1 .605-.229c.244.026.478.159.656.354.18.192.305.447.332.716.028.267-.048.499-.199.659zm-.255-2.544a.677.677 0 0 1-.59.215 1.025 1.025 0 0 1-.646-.35 1.218 1.218 0 0 1-.313-.718c-.021-.271.053-.508.19-.668a.628.628 0 0 1 .569-.218c.234.029.457.166.633.363.174.196.301.452.332.721.034.269-.036.499-.175.655zm-1.76-3.206c-.025-.271.041-.507.17-.666a.554.554 0 0 1 .533-.208c.223.032.436.174.604.374.172.198.297.456.332.724.037.27-.023.497-.152.651a.608.608 0 0 1-.559.203 1.006 1.006 0 0 1-.619-.357 1.297 1.297 0 0 1-.309-.721zm1.935 36.712a1.35 1.35 0 0 1-.332.721c-.176.196-.397.334-.633.362a.625.625 0 0 1-.569-.216c-.14-.161-.213-.397-.19-.67a1.25 1.25 0 0 1 .313-.718c.173-.191.403-.321.646-.35a.674.674 0 0 1 .59.216c.139.157.209.387.175.655zm.132-3.766a1.073 1.073 0 0 1-.673.344.747.747 0 0 1-.627-.234.898.898 0 0 1-.225-.675c.018-.271.135-.522.316-.71.178-.188.42-.314.68-.333a.8.8 0 0 1 .645.233.834.834 0 0 1 .215.662 1.182 1.182 0 0 1-.331.713zm.308-4.082a1.075 1.075 0 0 1-.697.326.847.847 0 0 1-.668-.251.899.899 0 0 1-.252-.681c.01-.271.129-.521.313-.705.183-.185.433-.305.703-.316s.512.085.678.252a.865.865 0 0 1 .248.673 1.11 1.11 0 0 1-.325.702zm.187-3.871c-.187.182-.438.3-.711.309a.921.921 0 0 1-.966-.953c.006-.271.123-.52.308-.7s.437-.294.714-.301a.954.954 0 0 1 .699.271.89.89 0 0 1 .273.677 1.04 1.04 0 0 1-.317.697zm.086-3.71a1.048 1.048 0 0 1-.715.295 1.002 1.002 0 0 1-.707-.279.95.95 0 0 1-.291-.692.97.97 0 0 1 .296-.692c.184-.179.436-.287.714-.287.277 0 .531.107.713.283a.941.941 0 0 1-.01 1.372zm12.365-3.798a.678.678 0 0 1-.269.573 1.071 1.071 0 0 1-.703.223 1.168 1.168 0 0 1-.721-.269.865.865 0 0 1-.317-.615.712.712 0 0 1 .26-.591.973.973 0 0 1 .691-.207c.276.019.533.127.727.287.194.161.319.372.332.599zm-.259-2.784a.6.6 0 0 1-.222.556c-.161.132-.401.203-.679.182a1.286 1.286 0 0 1-.729-.31 1.01 1.01 0 0 1-.355-.63.64.64 0 0 1 .219-.574c.158-.135.391-.201.663-.168.271.032.532.156.731.328.201.172.34.39.372.616zm-.439-2.646c.046.227-.022.415-.173.538-.149.122-.379.181-.647.142a1.423 1.423 0 0 1-.729-.345c-.2-.179-.346-.41-.387-.646-.039-.237.031-.436.176-.56.146-.126.365-.18.629-.132.266.049.524.188.729.368.206.183.356.407.402.635zm-.573-2.469c.059.227.007.407-.128.521-.136.113-.351.157-.612.105-.263-.053-.52-.192-.725-.381s-.357-.423-.411-.66c-.056-.236 0-.429.13-.546.131-.114.337-.155.594-.095.254.062.512.215.721.404.208.194.368.424.431.652zm-.677-2.291c.073.228.036.402-.083.508-.119.104-.32.137-.574.071a1.708 1.708 0 0 1-.715-.414 1.546 1.546 0 0 1-.434-.674c-.065-.236-.026-.425.088-.531.113-.107.308-.137.552-.062.245.074.499.236.711.438.211.199.381.437.455.664zm-.762-2.153c.088.229.066.398-.037.494-.104.096-.293.117-.535.04a1.875 1.875 0 0 1-.7-.445 1.812 1.812 0 0 1-.452-.686c-.076-.235-.054-.418.047-.52.102-.102.277-.117.51-.031.233.088.479.263.692.471.21.208.389.449.475.677zm-3.263 8.397a.862.862 0 0 1 .673-.204c.271.025.528.149.725.328.193.178.328.409.352.653.023.246-.068.459-.234.606s-.406.23-.685.214a1.204 1.204 0 0 1-.724-.312 1.04 1.04 0 0 1-.34-.666.751.751 0 0 1 .233-.619zm-.534-2.317c-.027-.252.049-.468.2-.608.151-.143.377-.211.642-.175.266.037.521.173.72.359.198.185.341.422.378.668a.654.654 0 0 1-.196.592c-.155.141-.389.212-.657.183a1.26 1.26 0 0 1-.721-.34 1.148 1.148 0 0 1-.366-.679zm2.489 6.097a.772.772 0 0 1-.274.619 1.025 1.025 0 0 1-.703.245 1.111 1.111 0 0 1-.719-.28.918.918 0 0 1-.313-.651.814.814 0 0 1 .267-.637.96.96 0 0 1 .697-.23c.275.012.531.123.723.294a.934.934 0 0 1 .322.64zm-1.778 6.043c.19-.173.445-.285.721-.301a.957.957 0 0 1 .693.227c.17.151.268.364.248.61-.019.244-.148.474-.343.648s-.451.294-.724.315a.903.903 0 0 1-.684-.213.768.768 0 0 1-.244-.627.99.99 0 0 1 .333-.659zm1.509-2.216a1.126 1.126 0 0 1-.719.281 1.009 1.009 0 0 1-.705-.248.847.847 0 0 1-.283-.641.896.896 0 0 1 .301-.647c.186-.165.436-.266.713-.266s.531.101.713.262c.184.16.294.381.289.625a.865.865 0 0 1-.309.634zm-.864-19.164c.085-.095.245-.103.465-.004.224.099.463.283.677.499.211.216.396.463.492.691.1.227.094.393.004.479-.089.089-.261.1-.494.011a2.078 2.078 0 0 1-.684-.474 2.088 2.088 0 0 1-.467-.697c-.086-.235-.079-.414.007-.505zm.127 6.822c.048.246-.017.448-.159.581-.143.131-.361.195-.623.153a1.357 1.357 0 0 1-.713-.368 1.28 1.28 0 0 1-.38-.688c-.041-.253.024-.465.164-.6.139-.135.353-.194.606-.146.256.05.506.193.705.388.202.193.352.436.4.68zm-.533-2.469c.06.245.009.443-.122.568-.129.126-.336.179-.591.128a1.411 1.411 0 0 1-.698-.395 1.407 1.407 0 0 1-.394-.697c-.05-.253.004-.46.128-.59.127-.129.324-.179.568-.12.246.059.492.213.693.414.201.202.357.448.416.692zm-.603-2.32c.07.245.031.439-.084.558-.115.119-.312.163-.555.103a1.495 1.495 0 0 1-.681-.417 1.558 1.558 0 0 1-.405-.706c-.061-.252-.02-.456.094-.58.113-.122.297-.165.529-.098.234.067.473.231.674.438.201.207.36.457.428.702zm-2.284 10.656a.929.929 0 0 1-.688.24 1.116 1.116 0 0 1-.719-.312 1.04 1.04 0 0 1-.326-.688.838.838 0 0 1 .254-.658.863.863 0 0 1 .676-.234c.273.019.527.141.719.323.189.182.32.424.336.683a.801.801 0 0 1-.252.646zm.401 2.52a.869.869 0 0 1-.279.657 1.013 1.013 0 0 1-.704.263 1.066 1.066 0 0 1-.72-.289.96.96 0 0 1-.307-.681.883.883 0 0 1 .275-.666.95.95 0 0 1 .699-.256c.277.008.531.123.719.3.189.175.31.414.317.672zm-.625-5.541a.852.852 0 0 1-.666.219 1.153 1.153 0 0 1-.711-.331 1.14 1.14 0 0 1-.34-.697.806.806 0 0 1 .227-.65.806.806 0 0 1 .652-.213c.264.027.516.157.707.346.19.188.325.434.353.691a.745.745 0 0 1-.222.635zm-.111-3.443c.035.258-.04.478-.189.627a.768.768 0 0 1-.637.196 1.172 1.172 0 0 1-.701-.352 1.197 1.197 0 0 1-.348-.704c-.028-.263.049-.49.197-.642a.704.704 0 0 1 .619-.194c.258.035.502.172.693.366.192.195.332.443.366.703zm-.39-2.606c.041.258-.021.477-.16.619-.139.145-.354.215-.607.179a1.199 1.199 0 0 1-.682-.369 1.277 1.277 0 0 1-.355-.711c-.033-.264.034-.488.172-.635.137-.147.34-.219.586-.177.244.041.483.188.672.386.189.198.331.449.374.708zm-.442-2.45c.05.26-.004.473-.131.611s-.33.204-.572.161-.479-.187-.663-.386-.317-.454-.358-.719c-.041-.263.018-.484.143-.628.124-.145.316-.21.55-.16.233.049.464.2.652.404.185.206.326.459.379.717zm-2.107-2.623c-.047-.264.002-.482.114-.622.113-.141.292-.199.513-.145.221.054.443.213.629.42.184.207.326.466.385.724.058.259.017.47-.103.604-.114.135-.304.194-.534.144a1.241 1.241 0 0 1-.642-.4 1.493 1.493 0 0 1-.362-.725zm2.107 35.584c-.051.26-.194.515-.381.719-.188.202-.42.354-.652.402s-.426-.017-.55-.159c-.125-.145-.185-.365-.144-.63.043-.264.176-.519.359-.719a1.25 1.25 0 0 1 .663-.385c.242-.042.446.021.573.161s.182.354.132.611zm.731-4.319a1.284 1.284 0 0 1-.367.701 1.24 1.24 0 0 1-.689.371c-.253.037-.466-.038-.609-.188-.146-.151-.222-.377-.188-.641.028-.265.159-.517.351-.707.188-.191.437-.324.694-.355a.741.741 0 0 1 .629.193c.143.148.216.367.179.626zm.123-3.241a1.192 1.192 0 0 1-.709.343.805.805 0 0 1-.656-.217.822.822 0 0 1-.229-.651c.021-.263.146-.511.339-.694.188-.187.44-.311.71-.329a.85.85 0 0 1 .67.222.757.757 0 0 1 .227.638 1.17 1.17 0 0 1-.352.688zm.302-3.74c-.19.181-.446.3-.719.314a.898.898 0 0 1-.688-.242.848.848 0 0 1-.261-.66c.012-.264.132-.507.32-.686a1.09 1.09 0 0 1 .717-.305.967.967 0 0 1 .696.248.828.828 0 0 1 .261.65c-.011.26-.138.5-.326.681zm.137-3.584a1.068 1.068 0 0 1-.717.288.991.991 0 0 1-.707-.267.904.904 0 0 1-.285-.67.931.931 0 0 1 .3-.676 1.03 1.03 0 0 1 .712-.278c.278 0 .529.105.713.273.182.17.293.403.289.662a.921.921 0 0 1-.305.668zm.296-19.154a1.735 1.735 0 0 1-.413-.715c-.066-.253-.038-.454.061-.571s.269-.15.487-.075c.222.076.453.248.651.461.195.215.361.468.438.713.08.245.055.436-.048.549-.103.112-.28.147-.513.078s-.469-.232-.663-.44zm1.862 33.175c-.068.245-.229.495-.428.704-.199.206-.438.369-.674.438-.232.066-.417.025-.529-.098-.112-.122-.153-.328-.094-.579.061-.254.209-.505.405-.708.194-.202.438-.355.681-.417s.438-.018.555.102c.118.12.155.314.084.558zm.996-4.094c-.049.245-.201.487-.401.684-.201.196-.45.344-.705.396-.251.053-.46-.005-.595-.14-.137-.133-.198-.345-.155-.596a1.31 1.31 0 0 1 .386-.69c.196-.192.449-.332.709-.375.258-.045.477.015.614.146.14.128.199.331.147.575zm.649-3.724c-.035.244-.176.48-.376.666a1.341 1.341 0 0 1-.72.354c-.266.035-.492-.035-.645-.179a.71.71 0 0 1-.207-.61c.032-.255.166-.492.36-.677.195-.183.452-.309.722-.337.272-.028.504.045.662.188.157.142.237.35.204.595zm1.805 6.691c-.086.228-.265.47-.477.678-.213.208-.459.383-.691.47-.232.088-.41.069-.511-.03-.101-.102-.123-.283-.047-.52a1.83 1.83 0 0 1 .452-.687 1.86 1.86 0 0 1 .699-.443c.242-.078.432-.059.537.039.104.096.123.266.038.493zm1.263-3.799c-.065.229-.229.462-.439.653a1.75 1.75 0 0 1-.719.414c-.253.065-.456.029-.582-.085s-.176-.305-.119-.541c.061-.237.213-.475.418-.665.207-.189.465-.335.725-.391.26-.058.472-.016.602.097.128.111.177.291.114.518zm.819-3.455c-.045.227-.194.449-.399.632-.206.18-.466.315-.729.361-.267.045-.488-.009-.637-.135-.146-.126-.218-.325-.179-.562.038-.235.182-.467.382-.645.201-.178.46-.304.73-.34.271-.037.5.021.651.146a.553.553 0 0 1 .181.543zm.127-2.668a1.332 1.332 0 0 1-.729.312c-.276.027-.513-.043-.679-.18a.675.675 0 0 1-.229-.581.94.94 0 0 1 .345-.625c.191-.167.448-.277.727-.294.275-.02.52.059.688.194.168.138.26.333.236.562-.027.228-.164.445-.359.612zm.242-3.161a1.196 1.196 0 0 1-.722.267 1.02 1.02 0 0 1-.703-.227.757.757 0 0 1-.278-.599.811.811 0 0 1 .303-.606c.184-.154.436-.248.713-.248s.531.093.712.242a.72.72 0 0 1 .287.579c-.006.229-.125.436-.312.592z"></path></g><defs data-v-fde0c5aa=""><!----></defs><g data-v-fde0c5aa="" id="aed5e3d2-9b26-45a3-a8d3-fabd492ba202" fill="#261624" transform="matrix(0.6794830452889067,0,0,0.6794830452889067,109.34501545307165,160.32956910135766)"><path d="M0.73 5.77C0.73 9.07 5.71 8.20 5.71 10.65C5.71 11.59 4.87 12.31 3.89 12.31C3.07 12.31 1.47 11.83 1.44 11.47L1.36 10.15C1.34 9.97 1.27 9.91 1.09 9.91L1.02 9.91C0.81 9.91 0.81 10.00 0.81 10.12C0.81 10.32 0.92 11.66 0.95 12.17C0.97 12.38 2.23 12.85 3.77 12.85C5.33 12.85 6.94 11.87 6.94 10.11C6.94 6.79 1.97 7.87 1.97 5.32C1.97 4.31 2.76 3.56 3.79 3.56C4.82 3.56 5.91 4.58 5.91 4.89C5.91 5.01 5.87 5.73 5.87 5.78C5.87 5.92 5.91 5.99 6.17 5.99C6.41 5.99 6.43 5.94 6.43 5.75C6.43 5.04 6.51 3.68 6.51 3.53C6.51 3.30 6.47 3.29 6.20 3.29C5.98 3.29 5.96 3.32 5.95 3.53C5.95 3.61 5.94 3.78 5.89 3.78C5.84 3.78 5.75 3.74 5.68 3.68C4.89 3.14 4.27 3.08 3.77 3.08C2.24 3.08 0.73 4.17 0.73 5.77ZM14.77 10.04C14.77 11.58 15.93 12.85 17.46 12.85C19.22 12.85 20.26 11.58 20.26 9.84C20.26 8.29 19.24 7.01 17.68 7.01C15.93 7.01 14.77 8.37 14.77 10.04ZM15.85 10.23C15.85 8.69 16.24 7.46 17.51 7.46C18.65 7.46 19.17 8.74 19.17 9.74C19.17 10.92 18.93 12.40 17.46 12.40C16.41 12.40 15.85 11.27 15.85 10.23ZM28.08 12.43C28.08 12.59 28.11 12.67 28.31 12.67C28.73 12.67 29.12 12.64 29.47 12.64C29.88 12.64 30.72 12.67 30.98 12.67C31.18 12.67 31.18 12.60 31.18 12.43C31.18 12.26 31.18 12.21 31.01 12.21L30.06 12.21C29.97 12.21 29.93 11.17 29.93 10.23L29.93 7.91C29.93 7.80 29.99 7.78 30.20 7.78L31.77 7.78C31.85 7.78 31.89 7.48 31.89 7.45C31.89 7.35 31.82 7.35 31.75 7.35L30.20 7.35C29.93 7.35 29.88 7.35 29.88 7.15C29.89 6.55 29.90 6.31 29.90 5.71C29.90 4.83 29.95 3.46 30.69 3.46C31.16 3.46 31.22 3.93 31.30 4.58C31.32 4.72 31.40 4.75 31.53 4.75C31.74 4.75 32.24 4.40 32.24 4.05C32.24 3.44 31.60 3.07 31.04 3.07C29.37 3.07 28.81 4.40 28.81 5.87C28.81 6.61 28.84 6.54 28.84 7.22C28.84 7.35 28.83 7.35 28.74 7.35L28.32 7.35C28.20 7.35 28.17 7.39 28.17 7.57C28.17 7.76 28.20 7.80 28.36 7.80L28.83 7.80C28.85 7.80 28.85 9.02 28.85 9.35L28.85 10.19C28.85 10.35 28.87 10.88 28.87 11.37C28.87 11.70 28.87 12.21 28.81 12.21L28.29 12.21C28.13 12.21 28.08 12.29 28.08 12.43ZM39.35 7.78C39.35 7.87 39.38 7.92 39.47 7.92L39.82 7.92C39.94 7.92 39.97 8.19 39.97 8.74C39.97 9.14 39.94 10.77 39.94 11.77C39.94 12.21 40.18 12.77 40.99 12.77C41.48 12.77 42.43 12.36 42.73 12.15C42.80 12.10 42.80 12.08 42.80 12.01C42.80 11.93 42.78 11.80 42.73 11.80C42.59 11.80 42.13 12.03 41.58 12.03C40.98 12.03 40.95 11.63 40.95 11.20L40.95 8.51C40.95 8.15 40.95 7.91 41.01 7.91L42.34 7.91C42.46 7.91 42.50 7.85 42.56 7.66C42.57 7.59 42.60 7.49 42.60 7.43C42.60 7.36 42.57 7.35 42.50 7.35L41.06 7.35C40.95 7.35 40.95 7.35 40.95 7.25C40.95 7.03 41.03 5.95 41.03 5.91C41.03 5.81 40.99 5.74 40.88 5.74C40.81 5.74 40.75 5.78 40.70 5.87L39.42 7.64C39.38 7.69 39.35 7.73 39.35 7.78ZM50.27 7.45C50.27 7.59 50.27 7.67 50.47 7.67L50.69 7.67C50.82 7.67 50.86 7.69 50.92 7.85C51.46 9.45 52.23 11.56 52.37 12.04C52.46 12.31 52.64 12.99 52.85 12.99C52.89 12.99 53.00 12.96 53.06 12.87C53.38 12.29 53.51 12.35 53.73 11.87C54.14 11.03 54.56 9.83 54.91 8.90C54.94 8.83 54.96 8.78 54.99 8.78C55.02 8.78 55.03 8.85 55.06 8.90C55.48 10.14 55.93 11.70 56.03 12.04C56.10 12.31 56.25 12.99 56.49 12.99C56.55 12.99 56.63 12.96 56.69 12.87C57.01 12.32 57.11 12.36 57.33 11.89C57.96 10.57 58.66 8.37 58.95 7.81C59.01 7.70 59.07 7.67 59.16 7.67L59.25 7.67C59.40 7.67 59.43 7.59 59.43 7.45C59.43 7.29 59.40 7.21 59.26 7.21C59.16 7.21 58.81 7.24 58.51 7.24C58.23 7.24 57.78 7.21 57.67 7.21C57.48 7.21 57.47 7.31 57.47 7.45C57.47 7.59 57.48 7.67 57.65 7.67L58.13 7.67C58.24 7.67 58.24 7.76 58.24 7.84C58.24 8.15 57.39 10.70 57.08 11.42C57.02 11.55 56.99 11.62 56.97 11.62C56.94 11.62 56.90 11.56 56.84 11.41C56.48 10.49 55.73 7.92 55.71 7.78C55.71 7.73 55.69 7.67 55.83 7.67L56.13 7.67C56.29 7.67 56.34 7.59 56.34 7.45C56.34 7.29 56.34 7.21 56.14 7.21C55.79 7.21 55.50 7.24 55.13 7.24C54.66 7.24 54.43 7.21 54.08 7.21C53.89 7.21 53.89 7.32 53.89 7.45C53.89 7.59 53.90 7.67 54.08 7.67L54.25 7.67C54.46 7.67 54.60 7.69 54.68 7.85C54.74 7.97 54.75 7.98 54.75 8.06C54.75 8.15 54.73 8.25 54.66 8.43C54.36 9.27 53.80 10.64 53.54 11.31C53.48 11.45 53.45 11.54 53.41 11.54C53.38 11.54 53.35 11.49 53.31 11.41C52.92 10.49 52.09 7.87 52.09 7.77C52.09 7.73 52.14 7.67 52.29 7.67L52.67 7.67C52.84 7.67 52.85 7.59 52.85 7.45C52.85 7.29 52.85 7.21 52.65 7.21C52.40 7.21 51.79 7.24 51.44 7.24C51.03 7.24 50.74 7.21 50.47 7.21C50.27 7.21 50.27 7.32 50.27 7.45ZM67.03 11.61C67.03 12.35 67.56 12.84 68.45 12.84C69.06 12.84 69.78 12.45 70.18 12.19C70.28 12.14 70.29 12.11 70.34 12.24C70.42 12.46 70.48 12.88 70.92 12.88C71.02 12.88 71.26 12.74 71.51 12.56C71.85 12.31 72.23 12.04 72.23 12.01C72.23 11.93 72.07 11.73 72.00 11.73C71.97 11.73 71.55 12.08 71.44 12.08C71.40 12.08 71.19 12.01 71.19 11.70C71.19 11.40 71.27 9.56 71.27 8.85C71.27 7.73 70.84 6.97 69.40 6.97C68.47 6.97 67.23 7.67 67.23 8.85C67.23 9.00 67.28 9.11 67.35 9.11C67.42 9.11 67.93 8.86 68.17 8.69C68.25 8.64 68.26 8.50 68.26 8.41C68.26 7.84 68.29 7.63 68.67 7.48C68.80 7.42 68.96 7.39 69.10 7.39C70.27 7.39 70.28 8.32 70.28 9.31C70.28 9.44 70.28 9.48 70.21 9.49C68.82 9.73 67.03 10.32 67.03 11.61ZM68.10 11.21C68.10 10.58 68.73 10.22 69.38 10.01C69.78 9.88 70.20 9.80 70.24 9.80C70.27 9.80 70.28 9.81 70.28 9.91L70.28 11.75C70.28 11.84 69.50 12.14 68.96 12.14C68.40 12.14 68.10 11.65 68.10 11.21ZM79.74 7.71C79.74 7.76 79.77 7.76 79.84 7.76C79.88 7.76 80.60 7.73 80.68 7.73C80.77 7.73 80.79 9.20 80.79 10.33C80.79 11.24 80.78 12.21 80.68 12.21L80.07 12.21C79.90 12.21 79.90 12.29 79.90 12.43C79.90 12.59 79.91 12.67 80.08 12.67C80.50 12.67 80.98 12.64 81.33 12.64C81.73 12.64 82.59 12.67 82.85 12.67C83.03 12.67 83.03 12.56 83.03 12.43C83.03 12.29 83.02 12.21 82.85 12.21L81.93 12.21C81.83 12.21 81.80 11.47 81.80 10.68C81.80 9.46 81.91 7.87 82.56 7.87C82.80 7.87 83.08 8.32 83.38 8.32C83.65 8.32 83.96 7.85 83.96 7.69C83.96 7.49 83.57 7.04 83.12 7.04C82.67 7.04 82.10 7.49 81.77 8.26C81.70 8.40 81.72 8.46 81.72 8.23C81.72 7.98 81.73 7.64 81.73 7.42C81.73 7.29 81.73 7.29 81.56 7.29C81.47 7.29 80.57 7.32 80.05 7.34C79.86 7.34 79.83 7.34 79.80 7.45C79.79 7.52 79.74 7.66 79.74 7.71ZM91.45 10.01C91.45 11.68 92.41 12.85 94.18 12.85C95.63 12.85 96.63 11.56 96.63 11.48C96.63 11.45 96.39 11.24 96.35 11.24C96.26 11.24 95.68 12.15 94.50 12.15C93.49 12.15 92.50 11.33 92.50 9.88C92.50 9.72 92.51 9.49 92.54 9.42C92.75 9.42 95.51 9.49 95.66 9.49C95.80 9.49 96.46 9.46 96.46 9.28C96.46 8.09 95.75 7.01 94.33 7.01C92.62 7.01 91.45 8.33 91.45 10.01ZM92.57 9.03C92.62 8.34 93.27 7.41 94.16 7.41C94.60 7.41 95.41 7.70 95.41 8.99C95.41 9.04 95.24 9.03 94.89 9.04C94.19 9.07 92.76 9.10 92.69 9.10C92.58 9.10 92.57 9.09 92.57 9.03ZM114.17 10.07C114.17 12.11 115.42 12.82 116.68 12.82C117.22 12.82 117.89 12.57 118.37 12.28C118.48 12.21 118.52 12.22 118.52 12.29C118.52 12.35 118.51 12.77 118.51 12.80C118.51 12.92 118.52 12.96 118.62 12.96C118.69 12.96 120.34 12.74 120.34 12.74C120.47 12.73 120.47 12.57 120.47 12.38C120.47 12.28 120.41 12.28 120.33 12.29C120.19 12.31 119.87 12.36 119.83 12.36C119.59 12.36 119.53 12.24 119.52 11.63C119.50 11.13 119.49 10.47 119.49 10.02C119.49 5.68 119.57 3.74 119.57 3.26C119.57 3.07 119.56 3.04 119.50 3.04C119.28 3.04 118.44 3.19 117.52 3.29C117.40 3.30 117.42 3.33 117.39 3.51C117.36 3.70 117.38 3.77 117.45 3.77C117.54 3.77 118.30 3.64 118.38 3.64C118.47 3.64 118.54 6.51 118.54 7.41C118.54 7.52 118.52 7.60 118.50 7.60C118.45 7.60 117.85 7.25 117.05 7.25C115.42 7.25 114.17 8.46 114.17 10.07ZM115.28 9.97C115.28 8.74 116.02 7.62 117.22 7.62C117.94 7.62 118.54 8.16 118.54 8.30L118.54 11.80C118.54 12.00 117.74 12.22 117.36 12.22C115.88 12.22 115.28 11.26 115.28 9.97ZM128.17 10.01C128.17 11.68 129.14 12.85 130.90 12.85C132.36 12.85 133.35 11.56 133.35 11.48C133.35 11.45 133.11 11.24 133.07 11.24C132.99 11.24 132.40 12.15 131.22 12.15C130.21 12.15 129.22 11.33 129.22 9.88C129.22 9.72 129.23 9.49 129.26 9.42C129.47 9.42 132.23 9.49 132.38 9.49C132.52 9.49 133.18 9.46 133.18 9.28C133.18 8.09 132.47 7.01 131.05 7.01C129.35 7.01 128.17 8.33 128.17 10.01ZM129.29 9.03C129.35 8.34 129.99 7.41 130.89 7.41C131.32 7.41 132.13 7.70 132.13 8.99C132.13 9.04 131.96 9.03 131.61 9.04C130.91 9.07 129.49 9.10 129.42 9.10C129.30 9.10 129.29 9.09 129.29 9.03ZM140.74 7.45C140.74 7.59 140.76 7.67 140.92 7.67L141.18 7.67C141.30 7.67 141.29 7.69 141.36 7.85C141.92 9.31 142.73 11.56 142.88 12.04C142.97 12.31 143.11 12.99 143.35 12.99C143.40 12.99 143.47 12.95 143.53 12.88C143.89 12.33 144.00 12.36 144.23 11.89C144.86 10.57 145.68 8.37 145.99 7.81C146.06 7.70 146.06 7.67 146.15 7.67L146.41 7.67C146.55 7.67 146.58 7.59 146.58 7.45C146.58 7.29 146.57 7.21 146.43 7.21C146.22 7.21 145.98 7.24 145.67 7.24C145.39 7.24 144.94 7.21 144.83 7.21C144.63 7.21 144.63 7.31 144.63 7.45C144.63 7.59 144.63 7.67 144.82 7.67L145.22 7.67C145.28 7.67 145.32 7.71 145.32 7.85C145.32 8.29 144.34 10.64 144.00 11.44C143.96 11.55 143.93 11.59 143.91 11.59C143.88 11.59 143.85 11.52 143.79 11.41C143.39 10.50 142.51 7.88 142.48 7.74C142.48 7.70 142.53 7.67 142.69 7.67L143.18 7.67C143.30 7.67 143.32 7.59 143.32 7.45C143.32 7.29 143.32 7.21 143.16 7.21C142.91 7.21 142.25 7.24 141.90 7.24C141.50 7.24 141.19 7.21 140.92 7.21C140.76 7.21 140.74 7.32 140.74 7.45ZM153.86 10.01C153.86 11.68 154.83 12.85 156.59 12.85C158.05 12.85 159.04 11.56 159.04 11.48C159.04 11.45 158.80 11.24 158.76 11.24C158.68 11.24 158.09 12.15 156.91 12.15C155.90 12.15 154.91 11.33 154.91 9.88C154.91 9.72 154.92 9.49 154.95 9.42C155.16 9.42 157.92 9.49 158.07 9.49C158.21 9.49 158.87 9.46 158.87 9.28C158.87 8.09 158.16 7.01 156.74 7.01C155.04 7.01 153.86 8.33 153.86 10.01ZM154.98 9.03C155.04 8.34 155.68 7.41 156.58 7.41C157.01 7.41 157.82 7.70 157.82 8.99C157.82 9.04 157.65 9.03 157.30 9.04C156.60 9.07 155.18 9.10 155.11 9.10C154.99 9.10 154.98 9.09 154.98 9.03ZM166.56 3.58C166.56 3.65 166.57 3.65 166.63 3.65C166.68 3.65 167.27 3.60 167.36 3.60C167.43 3.60 167.48 3.57 167.51 3.82C167.62 5.07 167.66 10.37 167.66 11.06C167.66 11.44 167.66 12.21 167.59 12.21L166.88 12.21C166.73 12.21 166.71 12.29 166.71 12.43C166.71 12.59 166.73 12.67 166.89 12.67C167.31 12.67 167.89 12.64 168.24 12.64C168.64 12.64 169.13 12.67 169.40 12.67C169.57 12.67 169.57 12.60 169.57 12.43C169.57 12.28 169.57 12.21 169.40 12.21L168.80 12.21C168.74 12.21 168.73 12.05 168.73 11.70C168.73 8.89 168.66 7.62 168.64 3.32C168.64 3.16 168.64 3.07 168.50 3.07C168.42 3.07 167.33 3.15 166.77 3.19C166.66 3.21 166.63 3.19 166.60 3.32C166.57 3.42 166.56 3.57 166.56 3.58ZM177.31 10.04C177.31 11.58 178.47 12.85 180.00 12.85C181.76 12.85 182.80 11.58 182.80 9.84C182.80 8.29 181.78 7.01 180.22 7.01C178.47 7.01 177.31 8.37 177.31 10.04ZM178.39 10.23C178.39 8.69 178.78 7.46 180.05 7.46C181.19 7.46 181.71 8.74 181.71 9.74C181.71 10.92 181.47 12.40 180.00 12.40C178.95 12.40 178.39 11.27 178.39 10.23ZM190.40 7.73C190.40 7.78 190.43 7.78 190.53 7.78C190.58 7.78 191.18 7.76 191.34 7.76C191.48 7.76 191.51 7.73 191.52 7.91C191.56 8.48 191.62 8.92 191.62 11.93L191.62 13.92C191.62 14.83 191.62 16.11 191.58 16.11L190.82 16.11C190.65 16.11 190.64 16.20 190.64 16.34C190.64 16.49 190.65 16.58 190.82 16.58C191.24 16.58 191.87 16.55 192.22 16.55C192.63 16.55 193.47 16.58 193.73 16.58C193.91 16.58 193.93 16.46 193.93 16.34C193.93 16.20 193.93 16.11 193.73 16.11L192.75 16.11C192.71 16.11 192.70 15.68 192.68 15.22L192.64 12.71C192.64 12.57 192.64 12.53 192.67 12.53C192.71 12.53 193.26 12.77 193.86 12.77C195.72 12.77 196.83 11.31 196.83 9.88C196.83 8.39 196.03 7.20 194.39 7.20C193.79 7.20 193.19 7.49 192.85 7.73C192.75 7.80 192.63 7.92 192.63 7.76L192.63 7.48C192.63 7.27 192.56 7.24 192.43 7.24C192.37 7.24 191.46 7.29 190.53 7.32C190.47 7.32 190.40 7.71 190.40 7.73ZM192.64 11.91L192.64 8.32C192.64 8.30 192.65 8.16 193.07 7.95C193.28 7.85 193.56 7.77 193.96 7.77C194.96 7.77 195.73 8.62 195.73 9.98C195.73 11.09 195.09 12.42 193.82 12.42C193.38 12.42 192.64 12.15 192.64 11.91ZM204.67 10.01C204.67 11.68 205.63 12.85 207.40 12.85C208.85 12.85 209.85 11.56 209.85 11.48C209.85 11.45 209.61 11.24 209.57 11.24C209.48 11.24 208.89 12.15 207.72 12.15C206.71 12.15 205.72 11.33 205.72 9.88C205.72 9.72 205.73 9.49 205.76 9.42C205.97 9.42 208.73 9.49 208.88 9.49C209.02 9.49 209.68 9.46 209.68 9.28C209.68 8.09 208.96 7.01 207.55 7.01C205.84 7.01 204.67 8.33 204.67 10.01ZM205.79 9.03C205.84 8.34 206.49 7.41 207.38 7.41C207.82 7.41 208.63 7.70 208.63 8.99C208.63 9.04 208.46 9.03 208.11 9.04C207.41 9.07 205.98 9.10 205.91 9.10C205.80 9.10 205.79 9.09 205.79 9.03ZM217.50 7.71C217.50 7.76 217.53 7.76 217.60 7.76C217.64 7.76 218.36 7.73 218.44 7.73C218.53 7.73 218.55 9.20 218.55 10.33C218.55 11.24 218.54 12.21 218.44 12.21L217.83 12.21C217.66 12.21 217.66 12.29 217.66 12.43C217.66 12.59 217.67 12.67 217.84 12.67C218.26 12.67 218.74 12.64 219.09 12.64C219.49 12.64 220.35 12.67 220.61 12.67C220.79 12.67 220.79 12.56 220.79 12.43C220.79 12.29 220.78 12.21 220.61 12.21L219.69 12.21C219.59 12.21 219.56 11.47 219.56 10.68C219.56 9.46 219.67 7.87 220.32 7.87C220.56 7.87 220.84 8.32 221.14 8.32C221.41 8.32 221.72 7.85 221.72 7.69C221.72 7.49 221.33 7.04 220.88 7.04C220.43 7.04 219.86 7.49 219.53 8.26C219.46 8.40 219.48 8.46 219.48 8.23C219.48 7.98 219.49 7.64 219.49 7.42C219.49 7.29 219.49 7.29 219.32 7.29C219.23 7.29 218.33 7.32 217.81 7.34C217.62 7.34 217.59 7.34 217.56 7.45C217.55 7.52 217.50 7.66 217.50 7.71Z"></path></g></svg>