<svg data-v-fde0c5aa="" xmlns="http://www.w3.org/2000/svg" viewBox="0 0 300 300" class="iconLeftSlogan"><!----><defs data-v-fde0c5aa=""><!----></defs><rect data-v-fde0c5aa="" fill="#F3E9F1" x="0" y="0" width="300px" height="300px" class="logo-background-square"></rect><defs data-v-fde0c5aa=""><!----></defs><g data-v-fde0c5aa="" id="c3e5e269-fea9-43a2-b97a-54b000f9e0ed" fill="#261624" transform="matrix(3.254727802883025,0,0,3.254727802883025,127.07691389965937,110.1704198107351)"><path d="M3.78 13.78L4.62 13.78L4.62 10.40L7.76 4.54L6.90 4.54L5.42 7.45C5.05 8.16 4.65 8.90 4.26 9.65L4.20 9.65C3.79 8.90 3.44 8.19 3.07 7.49L1.51 4.54L0.64 4.54L3.78 10.40ZM12.71 13.94C14.63 13.94 15.85 12.84 15.85 11.40C15.85 10.00 14.88 9.45 13.79 8.95L12.43 8.36C11.69 8.02 10.74 7.64 10.74 6.65C10.74 5.70 11.55 5.11 12.77 5.11C13.73 5.11 14.48 5.47 15.06 6.02L15.53 5.47C14.91 4.84 13.93 4.37 12.77 4.37C11.10 4.37 9.88 5.33 9.88 6.71C9.88 8.05 11.00 8.68 11.89 9.04L13.26 9.63C14.22 10.07 15.01 10.37 15.01 11.47C15.01 12.50 14.14 13.20 12.71 13.20C11.62 13.20 10.63 12.71 9.94 11.97L9.42 12.56C10.19 13.38 11.33 13.94 12.71 13.94ZM21.42 13.96C22.58 13.96 23.37 13.54 24.00 13.12L23.69 12.53C23.04 12.98 22.37 13.26 21.50 13.26C19.85 13.26 18.70 12.07 18.69 10.36L24.25 10.36C24.28 10.18 24.28 9.98 24.28 9.79C24.28 7.74 23.11 6.47 21.24 6.47C19.50 6.47 17.84 7.91 17.84 10.22C17.84 12.56 19.46 13.96 21.42 13.96ZM18.68 9.73C18.86 8.12 20.01 7.13 21.24 7.13C22.62 7.13 23.51 8.04 23.51 9.73ZM29.82 13.96C30.98 13.96 31.77 13.54 32.40 13.12L32.09 12.53C31.44 12.98 30.77 13.26 29.90 13.26C28.25 13.26 27.10 12.07 27.09 10.36L32.65 10.36C32.68 10.18 32.68 9.98 32.68 9.79C32.68 7.74 31.51 6.47 29.64 6.47C27.90 6.47 26.24 7.91 26.24 10.22C26.24 12.56 27.86 13.96 29.82 13.96ZM27.08 9.73C27.26 8.12 28.41 7.13 29.64 7.13C31.02 7.13 31.91 8.04 31.91 9.73ZM35.01 13.78L35.83 13.78L35.83 8.71C36.74 7.67 37.35 7.18 38.25 7.18C39.51 7.18 40.03 7.92 40.03 9.44L40.03 13.78L40.84 13.78L40.84 9.32C40.84 7.42 40.08 6.47 38.44 6.47C37.38 6.47 36.58 7.10 35.83 7.98L35.77 7.98L35.69 6.64L35.01 6.64Z"></path></g><defs data-v-fde0c5aa=""><linearGradient data-v-fde0c5aa="" gradientTransform="rotate(25)" id="07f47b9f-0c02-4e1b-8a76-b63dd4360000" x1="0%" y1="0%" x2="100%" y2="0%"><stop data-v-fde0c5aa="" offset="0%" stop-color="#E98C00" stop-opacity="1"></stop><stop data-v-fde0c5aa="" offset="100%" stop-color="#8F5BFE" stop-opacity="1"></stop></linearGradient></defs><g data-v-fde0c5aa="" id="077307d7-8a20-4499-9366-7e8b691ec0d8" stroke="none" fill="url(#07f47b9f-0c02-4e1b-8a76-b63dd4360000)" transform="matrix(4.214716828347386,0,0,4.214716828347386,40.0421471280888,111.92003409899613)"><g data-name="Calque 2"><path d="M15.22 10.59l2.84-1.56-5.84-3.19-1.1-2.01 4.49-1.32-1.31 4.47.9.49 1.88-6.43-6.45 1.89L9.03 0 5.84 5.84 3.9 6.9 2.61 2.51l4.35 1.27.49-.9-6.31-1.84L3 7.39l.57-.31-3.58 1.96 5.84 3.19 3.19 5.84 1.62-2.97 6.44 1.88-1.87-6.39zm.76-1.56l-4.03 2.2-2.21-2.24 2.16-2.2 4.08 2.23zm-4.77-2.96L9.03 8.28 6.84 6.07l2.18-3.99 2.18 3.99zM2.08 9.03L6.16 6.8 8.33 9l-2.21 2.24-4.04-2.21zm4.74 2.92l2.21-2.24 2.2 2.23-2.21 4.04-2.2-4.03zm5.39.27l2.09-1.15 1.3 4.42-4.47-1.31 1.08-1.97z"></path><path d="M2.62 15.51l1.27-4.35-.9-.49-1.84 6.31 6.28-1.84-.49-.9-4.32 1.27z"></path></g></g><defs data-v-fde0c5aa=""><!----></defs><g data-v-fde0c5aa="" id="aed5e3d2-9b26-45a3-a8d3-fabd492ba202" fill="#261624" transform="matrix(0.9372496736285088,0,0,0.9372496736285088,127.9883777489065,162.98212102167184)"><path d="M4.52 5.88L4.52 5.88Q6.01 5.88 6.87 6.85L6.87 6.85L6.87 6.85Q7.73 7.81 7.73 9.52L7.73 9.52L7.73 9.52Q7.73 11.23 6.87 12.19L6.87 12.19L6.87 12.19Q6.01 13.16 4.52 13.16L4.52 13.16L4.52 13.16Q3.58 13.16 2.90 12.71L2.90 12.71L2.90 12.71Q2.21 12.25 1.92 11.45L1.92 11.45L1.88 13.02L1.25 13.02L1.25 2.80L1.95 2.80L1.95 7.50L1.95 7.50Q2.27 6.75 2.95 6.31L2.95 6.31L2.95 6.31Q3.63 5.88 4.52 5.88L4.52 5.88ZM4.44 12.54L4.44 12.54Q5.66 12.54 6.34 11.74L6.34 11.74L6.34 11.74Q7.03 10.93 7.03 9.52L7.03 9.52L7.03 9.52Q7.03 8.11 6.34 7.30L6.34 7.30L6.34 7.30Q5.66 6.50 4.44 6.50L4.44 6.50L4.44 6.50Q3.35 6.50 2.67 7.24L2.67 7.24L2.67 7.24Q2.00 7.98 1.95 9.27L1.95 9.27L1.95 9.77L1.95 9.77Q2.00 11.06 2.67 11.80L2.67 11.80L2.67 11.80Q3.35 12.54 4.44 12.54L4.44 12.54ZM22.18 6.02L18.80 14.31L18.80 14.31Q18.41 15.26 17.93 15.64L17.93 15.64L17.93 15.64Q17.46 16.03 16.73 16.03L16.73 16.03L16.73 16.03Q15.86 16.03 15.40 15.51L15.40 15.51L15.67 14.91L15.67 14.91Q16.00 15.41 16.73 15.41L16.73 15.41L16.73 15.41Q17.22 15.41 17.56 15.14L17.56 15.14L17.56 15.14Q17.91 14.87 18.20 14.14L18.20 14.14L18.65 13.02L17.92 11.28L15.69 6.02L16.49 6.02L18.63 11.33L18.98 12.26L19.36 11.26L21.42 6.02L22.18 6.02ZM47.40 3.78L44.13 9.42L44.13 13.02L43.43 13.02L43.43 9.42L40.15 3.78L40.98 3.78L43.78 8.69L46.58 3.78L47.40 3.78ZM60.38 12.56L60.38 12.56Q60.73 12.56 60.93 12.46L60.93 12.46L60.89 13.02L60.89 13.02Q60.63 13.16 60.20 13.16L60.20 13.16L60.20 13.16Q59.71 13.16 59.40 12.89L59.40 12.89L59.40 12.89Q59.09 12.63 59.05 11.97L59.05 11.97L59.05 11.97Q58.73 12.53 58.02 12.84L58.02 12.84L58.02 12.84Q57.30 13.16 56.52 13.16L56.52 13.16L56.52 13.16Q55.48 13.16 54.86 12.70L54.86 12.70L54.86 12.70Q54.24 12.24 54.24 11.38L54.24 11.38L54.24 11.38Q54.24 9.76 56.90 9.28L56.90 9.28L59.04 8.90L59.04 8.29L59.04 8.29Q59.04 7.45 58.54 6.97L58.54 6.97L58.54 6.97Q58.04 6.50 57.13 6.50L57.13 6.50L57.13 6.50Q55.47 6.50 54.89 7.98L54.89 7.98L54.36 7.59L54.36 7.59Q54.67 6.76 55.38 6.32L55.38 6.32L55.38 6.32Q56.10 5.88 57.13 5.88L57.13 5.88L57.13 5.88Q58.35 5.88 59.04 6.47L59.04 6.47L59.04 6.47Q59.74 7.07 59.74 8.20L59.74 8.20L59.74 11.82L59.74 11.82Q59.74 12.56 60.38 12.56L60.38 12.56ZM56.59 12.54L56.59 12.54Q57.18 12.54 57.74 12.34L57.74 12.34L57.74 12.34Q58.30 12.14 58.67 11.74L58.67 11.74L58.67 11.74Q59.04 11.34 59.04 10.78L59.04 10.78L59.04 9.48L57.12 9.83L57.12 9.83Q55.99 10.04 55.47 10.42L55.47 10.42L55.47 10.42Q54.95 10.79 54.95 11.38L54.95 11.38L54.95 11.38Q54.95 11.94 55.38 12.24L55.38 12.24L55.38 12.24Q55.82 12.54 56.59 12.54L56.59 12.54ZM72.21 5.88L72.21 5.88Q73.26 5.88 74.00 6.38L74.00 6.38L74.00 6.38Q74.73 6.87 75.05 7.77L75.05 7.77L74.40 8.08L74.40 8.08Q74.16 7.31 73.60 6.90L73.60 6.90L73.60 6.90Q73.04 6.50 72.20 6.50L72.20 6.50L72.20 6.50Q70.98 6.50 70.29 7.30L70.29 7.30L70.29 7.30Q69.61 8.11 69.61 9.52L69.61 9.52L69.61 9.52Q69.61 10.95 70.29 11.75L70.29 11.75L70.29 11.75Q70.97 12.54 72.18 12.54L72.18 12.54L72.18 12.54Q73.08 12.54 73.70 12.10L73.70 12.10L73.70 12.10Q74.33 11.66 74.47 10.88L74.47 10.88L75.11 11.10L75.11 11.10Q74.83 12.05 74.05 12.61L74.05 12.61L74.05 12.61Q73.28 13.16 72.20 13.16L72.20 13.16L72.20 13.16Q70.64 13.16 69.78 12.19L69.78 12.19L69.78 12.19Q68.91 11.23 68.91 9.52L68.91 9.52L68.91 9.52Q68.91 7.81 69.78 6.85L69.78 6.85L69.78 6.85Q70.66 5.88 72.21 5.88L72.21 5.88ZM84.34 4.66L84.34 4.66Q84.07 4.66 83.91 4.50L83.91 4.50L83.91 4.50Q83.75 4.34 83.75 4.07L83.75 4.07L83.75 4.07Q83.75 3.81 83.91 3.65L83.91 3.65L83.91 3.65Q84.07 3.49 84.34 3.49L84.34 3.49L84.34 3.49Q84.60 3.49 84.76 3.65L84.76 3.65L84.76 3.65Q84.92 3.81 84.92 4.07L84.92 4.07L84.92 4.07Q84.92 4.34 84.76 4.50L84.76 4.50L84.76 4.50Q84.60 4.66 84.34 4.66L84.34 4.66ZM84.69 6.02L84.69 13.02L83.99 13.02L83.99 6.02L84.69 6.02ZM97.47 5.88L97.47 5.88Q98.67 5.88 99.41 6.55L99.41 6.55L99.41 6.55Q100.14 7.22 100.14 8.48L100.14 8.48L100.14 13.02L99.44 13.02L99.44 8.71L99.44 8.71Q99.44 7.59 98.90 7.04L98.90 7.04L98.90 7.04Q98.35 6.50 97.40 6.50L97.40 6.50L97.40 6.50Q96.73 6.50 96.15 6.80L96.15 6.80L96.15 6.80Q95.58 7.11 95.23 7.70L95.23 7.70L95.23 7.70Q94.89 8.29 94.89 9.07L94.89 9.07L94.89 13.02L94.19 13.02L94.19 6.02L94.82 6.02L94.85 7.43L94.85 7.43Q95.19 6.68 95.88 6.28L95.88 6.28L95.88 6.28Q96.57 5.88 97.47 5.88L97.47 5.88ZM115.39 9.35L115.39 9.35Q115.39 9.59 115.36 9.81L115.36 9.81L109.80 9.81L109.80 9.81Q109.87 11.10 110.56 11.82L110.56 11.82L110.56 11.82Q111.26 12.54 112.42 12.54L112.42 12.54L112.42 12.54Q113.25 12.54 113.84 12.21L113.84 12.21L113.84 12.21Q114.44 11.87 114.70 11.26L114.70 11.26L115.29 11.56L115.29 11.56Q114.90 12.33 114.17 12.75L114.17 12.75L114.17 12.75Q113.44 13.16 112.42 13.16L112.42 13.16L112.42 13.16Q110.87 13.16 109.99 12.19L109.99 12.19L109.99 12.19Q109.12 11.23 109.12 9.52L109.12 9.52L109.12 9.52Q109.12 7.81 109.96 6.85L109.96 6.85L109.96 6.85Q110.81 5.88 112.34 5.88L112.34 5.88L112.34 5.88Q113.76 5.88 114.58 6.83L114.58 6.83L114.58 6.83Q115.39 7.78 115.39 9.35L115.39 9.35ZM112.34 6.50L112.34 6.50Q111.20 6.50 110.54 7.20L110.54 7.20L110.54 7.20Q109.89 7.91 109.80 9.18L109.80 9.18L114.73 9.18L114.73 9.18Q114.66 7.92 114.04 7.21L114.04 7.21L114.04 7.21Q113.41 6.50 112.34 6.50L112.34 6.50ZM124.61 11.87L124.61 11.87Q124.89 11.87 125.07 12.05L125.07 12.05L125.07 12.05Q125.24 12.22 125.24 12.50L125.24 12.50L125.24 12.50Q125.24 12.78 125.07 12.96L125.07 12.96L125.07 12.96Q124.89 13.13 124.61 13.13L124.61 13.13L124.61 13.13Q124.33 13.13 124.16 12.96L124.16 12.96L124.16 12.96Q123.98 12.78 123.98 12.50L123.98 12.50L123.98 12.50Q123.98 12.22 124.16 12.05L124.16 12.05L124.16 12.05Q124.33 11.87 124.61 11.87L124.61 11.87ZM135.31 12.38L140.85 12.38L140.85 13.02L134.61 13.02L134.61 3.78L135.31 3.78L135.31 12.38Z"></path></g></svg>