<!DOCTYPE svg PUBLIC "-//W3C//DTD SVG 1.1//EN" "http://www.w3.org/Graphics/SVG/1.1/DTD/svg11.dtd">
<!-- Uploaded to: SVG Repo, www.svgrepo.com, Transformed by: SVG Repo Mixer Tools -->
<svg width="800px" height="800px" viewBox="-10.88 -10.88 85.76 85.76" xmlns="http://www.w3.org/2000/svg" xmlns:xlink="http://www.w3.org/1999/xlink" aria-hidden="true" role="img" class="iconify iconify--emojione" preserveAspectRatio="xMidYMid meet" fill="#000000" transform="matrix(-1, 0, 0, 1, 0, 0)">
<g id="SVGRepo_bgCarrier" stroke-width="0">
<path transform="translate(-10.88, -10.88), scale(5.36)" fill="#ae6ca7" d="M9.166.33a2.25 2.25 0 00-2.332 0l-5.25 3.182A2.25 2.25 0 00.5 5.436v5.128a2.25 2.25 0 001.084 1.924l5.25 3.182a2.25 2.25 0 002.332 0l5.25-3.182a2.25 2.25 0 001.084-1.924V5.436a2.25 2.25 0 00-1.084-1.924L9.166.33z" strokewidth="0"/>
</g>
<g id="SVGRepo_tracerCarrier" stroke-linecap="round" stroke-linejoin="round"/>
<g id="SVGRepo_iconCarrier"> <path fill="#5628fb" d="M27.2 58.6h12.3V64H27.2z"> </path> <g fill="#3e4347"> <path d="M49 55.8c0 1.4-1.2 2.7-2.7 2.7H19.1c-1.5 0-2.7-1.3-2.7-2.7v-19c0-1.4 1.2-2.7 2.7-2.7h27.2c1.5 0 2.7 1.3 2.7 2.7v19"> </path> <circle cx="17.7" cy="17.7" r="17.7"> </circle> </g> <g fill="#d0d0d0"> <circle cx="11.4" cy="8.7" r="4.1"> </circle> <circle cx="24" cy="8.7" r="4.1"> </circle> <circle cx="28" cy="20.3" r="4.1"> </circle> <circle cx="17.7" cy="28.4" r="4.1"> </circle> <circle cx="7.4" cy="20.3" r="4.1"> </circle> <circle cx="16.2" cy="15.4" r="1"> </circle> <circle cx="19.3" cy="15.4" r="1"> </circle> <circle cx="20.3" cy="18.3" r="1"> </circle> <circle cx="17.7" cy="20.3" r="1"> </circle> <circle cx="15.1" cy="18.3" r="1"> </circle> </g> <circle cx="49" cy="20.4" r="15" fill="#3e4347"> </circle> <g fill="#d0d0d0"> <circle cx="43.7" cy="12.9" r="3.4"> </circle> <circle cx="54.3" cy="12.8" r="3.4"> </circle> <circle cx="57.8" cy="22.6" r="3.4"> </circle> <circle cx="49" cy="29.5" r="3.4"> </circle> <circle cx="40.3" cy="22.6" r="3.4"> </circle> <circle cx="47.7" cy="18.5" r=".9"> </circle> <circle cx="50.4" cy="18.5" r=".9"> </circle> <circle cx="51.2" cy="20.9" r=".9"> </circle> <circle cx="49" cy="22.7" r=".9"> </circle> <circle cx="46.9" cy="20.9" r=".9"> </circle> </g> <g fill="#3e4347"> <path d="M6.8 40.9v20.4l10.9-5.5v-9.5z"> </path> <path d="M55.8 35.4v9.5L49 43.6v-6.8z"> </path> </g> </g>
</svg>